<svg xmlns="http://www.w3.org/2000/svg" xmlns:xlink="http://www.w3.org/1999/xlink" width="23.9" height="36.118" viewBox="0 0 23.9 36.118">
  <defs>
    <linearGradient id="linear-gradient" x1="0.5" y1="1.059" x2="0.5" y2="0.302" gradientUnits="objectBoundingBox">
      <stop offset="0" stop-color="#d7d1eb"/>
      <stop offset="1" stop-color="#e9e5f6"/>
    </linearGradient>
    <linearGradient id="linear-gradient-2" x1="0.697" y1="0.098" x2="0.755" y2="0.003" gradientUnits="objectBoundingBox">
      <stop offset="0" stop-color="#236568"/>
      <stop offset="1" stop-color="#2f878a"/>
    </linearGradient>
    <linearGradient id="linear-gradient-3" x1="0.543" y1="0.494" x2="0.63" y2="0.338" xlink:href="#linear-gradient-2"/>
  </defs>
  <g id="contract" transform="translate(-86.599)">
    <g id="Group_129" data-name="Group 129" transform="translate(86.599)">
      <path id="Path_438" data-name="Path 438" d="M86.6,10.084,104.065,0V26.034L86.6,36.118Z" transform="translate(-86.599)" fill="url(#linear-gradient)"/>
      <g id="Group_128" data-name="Group 128" transform="translate(2.753 6.79)">
        <path id="Path_439" data-name="Path 439" d="M161.63,100.229l6.88-3.972v1l-6.88,3.972Z" transform="translate(-159.09 -96.257)" fill="#594a8e"/>
        <path id="Path_440" data-name="Path 440" d="M125.629,133.029l11.959-6.929v1l-11.959,6.929Z" transform="translate(-125.629 -123.995)" fill="#594a8e"/>
        <path id="Path_441" data-name="Path 441" d="M125.629,164.866l11.959-6.929v1l-11.959,6.929Z" transform="translate(-125.629 -153.586)" fill="#594a8e"/>
        <path id="Path_442" data-name="Path 442" d="M125.629,196.7l11.959-6.929v1L125.629,197.7Z" transform="translate(-125.629 -183.177)" fill="#594a8e"/>
        <path id="Path_443" data-name="Path 443" d="M125.629,256.131l11.959-6.929v1l-11.959,6.929Z" transform="translate(-125.629 -238.413)" fill="#594a8e"/>
        <path id="Path_444" data-name="Path 444" d="M125.629,319.805l11.959-6.929v1L125.629,320.8Z" transform="translate(-125.629 -297.595)" fill="#594a8e"/>
        <path id="Path_445" data-name="Path 445" d="M125.629,287.968l11.959-6.929v1l-11.959,6.929Z" transform="translate(-125.629 -268.004)" fill="#594a8e"/>
      </g>
    </g>
    <g id="Group_131" data-name="Group 131" transform="translate(96.592 15.104)">
      <path id="Path_446" data-name="Path 446" d="M241.837,215.806a.819.819,0,0,0-.182-.1l-2.505-1.423a.821.821,0,0,0-1.223.274l-4.671,8.995-.05-.038a1.405,1.405,0,0,0-.479-.234v0l-2.206-1.289a1.409,1.409,0,0,0-.384-.205l0,0h0a1.412,1.412,0,0,0-1.315,2.46l4.25,3.213,2.687,1.526,6.316-12.136A.821.821,0,0,0,241.837,215.806Z" transform="translate(-228.255 -214.114)" fill="url(#linear-gradient-2)"/>
      <path id="Path_447" data-name="Path 447" d="M233.208,323.469a1.407,1.407,0,0,0-.479-.234v0l-2.206-1.289a1.409,1.409,0,0,0-.384-.205l0,0h0a1.412,1.412,0,0,0-1.315,2.46l4.25,3.213,2.687,1.526Z" transform="translate(-228.257 -314.071)" fill="url(#linear-gradient-3)"/>
      <g id="Group_130" data-name="Group 130" transform="translate(2.687 1.526)">
        <path id="Path_448" data-name="Path 448" d="M271.155,249.087l-4.25-3.213a1.412,1.412,0,1,1,1.7-2.253l2.547,1.925,4.861-9.356a.821.821,0,1,1,1.455.761Z" transform="translate(-266.343 -235.749)" fill="#06daae"/>
      </g>
    </g>
  </g>
</svg>
