<svg xmlns="http://www.w3.org/2000/svg" width="70" height="70" viewBox="0 0 70 70">
  <g id="Group_146" data-name="Group 146" transform="translate(4 -431)">
    <g id="Path_479" data-name="Path 479" transform="translate(-4 431)" fill="none" stroke-linecap="round">
      <path d="M35,0A35,35,0,1,1,0,35,35,35,0,0,1,35,0Z" stroke="none"/>
      <path d="M 35 9 C 20.66354370117188 9 9 20.66354370117188 9 35 C 9 49.33645629882812 20.66354370117188 61 35 61 C 49.33645629882812 61 61 49.33645629882812 61 35 C 61 20.66354370117188 49.33645629882812 9 35 9 M 35 0 C 54.32996368408203 0 70 15.67003631591797 70 35 C 70 54.32996368408203 54.32996368408203 70 35 70 C 15.67003631591797 70 0 54.32996368408203 0 35 C 0 15.67003631591797 15.67003631591797 0 35 0 Z" stroke="none" fill="#f5f5f5"/>
    </g>
    <g id="Path_480" data-name="Path 480" transform="translate(-4 431)" fill="none" stroke-linecap="round" stroke-dasharray="120">
      <path d="M35,0A35,35,0,1,1,0,35,35,35,0,0,1,35,0Z" stroke="none"/>
      <path d="M 35 0 C 54.32996368408203 0 70 15.67003631591797 70 35 C 70 54.32996368408203 54.32996368408203 70 35 70 C 34.99412536621094 70 34.98802185058594 70 34.98214721679688 69.99999237060547 C 34.9809684753418 69.99999237060547 34.97825241088867 69.99999237060547 34.97707366943359 69.99999237060547 C 34.97225189208984 69.99999237060547 34.96752548217773 69.99998474121094 34.96269989013672 69.99997711181641 C 34.96152114868164 69.99997711181641 34.95983505249023 69.99997711181641 34.95865631103516 69.99997711181641 C 34.95278549194336 69.99996948242188 34.94686126708984 69.99996185302734 34.94099044799805 69.99995422363281 C 34.93981170654297 69.99994659423828 34.93777847290039 69.99994659423828 34.93659973144531 69.99994659423828 C 34.93198776245117 69.99993133544922 34.92745590209961 69.99992370605469 34.92284393310547 69.99991607666016 C 34.92166519165039 69.99991607666016 34.91874694824219 69.99990844726562 34.91756820678711 69.99990081787109 C 34.91169738769531 69.99989318847656 34.90592575073242 69.9998779296875 34.90005493164062 69.99986267089844 C 34.89887619018555 69.99985504150391 34.89823150634766 69.99985504150391 34.89705276489258 69.99984741210938 C 34.89202117919922 69.99983978271484 34.88689804077148 69.99982452392578 34.88186645507812 69.99980163574219 C 34.87950897216797 69.99979400634766 34.87899398803711 69.99979400634766 34.87663650512695 69.99978637695312 C 34.87118530273438 69.99977111816406 34.86606979370117 69.99974822998047 34.86062240600586 69.99972534179688 C 34.85944366455078 69.99972534179688 34.85995483398438 69.99972534179688 34.8587760925293 69.99971771240234 C 34.85311889648438 69.99969482421875 34.84696197509766 69.99967193603516 34.84130096435547 69.99964904785156 C 34.84012222290039 69.99964141845703 34.83706665039062 69.99962615966797 34.83588790893555 69.99962615966797 C 34.83127975463867 69.99960327148438 34.82638168334961 69.99958038330078 34.82176971435547 69.99955749511719 C 34.81941604614258 69.99954223632812 34.81996917724609 69.99954986572266 34.8176155090332 69.99953460693359 C 34.81174850463867 69.99950408935547 34.8060188293457 69.99947357177734 34.80015182495117 69.99944305419922 C 34.79897308349609 69.99943542480469 34.79671478271484 69.99942016601562 34.79553604125977 69.99941253662109 C 34.79092788696289 69.9993896484375 34.78608703613281 69.99935913085938 34.78147506713867 69.99932861328125 C 34.78030014038086 69.99932098388672 34.77803421020508 69.99931335449219 34.77685546875 69.99930572509766 C 34.77099227905273 69.999267578125 34.76516723632812 69.99922943115234 34.75930404663086 69.99919128417969 C 34.75812530517578 69.99918365478516 34.75666427612305 69.99916839599609 34.75548553466797 69.99916076660156 C 34.75087738037109 69.99913024902344 34.74588012695312 69.99909973144531 34.74127197265625 69.99906158447266 C 34.73891830444336 69.99904632568359 34.73777770996094 69.99903869628906 34.73542022705078 69.9990234375 C 34.73081207275391 69.99898529052734 34.7259407043457 69.99894714355469 34.72133636474609 69.99891662597656 C 34.72015762329102 69.9989013671875 34.71872711181641 69.99889373779297 34.71754837036133 69.99888610839844 C 34.71189498901367 69.99884033203125 34.70623779296875 69.99879455566406 34.70058822631836 69.99874877929688 C 34.69940948486328 69.99873352050781 34.69568252563477 69.99870300292969 34.69450759887695 69.99869537353516 C 34.69052886962891 69.9986572265625 34.68642425537109 69.99862670898438 34.68244934082031 69.99858856201172 C 34.68009185791016 69.99856567382812 34.67830657958984 69.99855041503906 34.67595291137695 69.99852752685547 C 34.6702995300293 69.99848175048828 34.66493606567383 69.99842834472656 34.65928649902344 69.99837493896484 C 34.65692901611328 69.99835205078125 34.65696716308594 69.99835205078125 34.65461349487305 69.99832916259766 C 34.65000915527344 69.99828338623047 34.6458854675293 69.99824523925781 34.64128112792969 69.99819946289062 C 34.6389274597168 69.99817657470703 34.63785552978516 69.99816131591797 34.63550186157227 69.99813842773438 C 34.62984848022461 69.99808502197266 34.62384033203125 69.99802398681641 34.61819076538086 69.99796295166016 C 34.61701583862305 69.99794769287109 34.61735916137695 69.99794769287109 34.61618041992188 69.99794006347656 C 34.6109504699707 69.99787902832031 34.60559844970703 69.99782562255859 34.60036849975586 69.99776458740234 C 34.59801483154297 69.99774169921875 34.59695816040039 69.99772644042969 34.5946044921875 69.99769592285156 C 34.59000015258789 69.99765014648438 34.58534622192383 69.99759674072266 34.58074569702148 69.99754333496094 C 34.57956695556641 69.99752807617188 34.57791900634766 69.99750518798828 34.57674026489258 69.99748992919922 C 34.57088470458984 69.99742126464844 34.56540679931641 69.99736022949219 34.55955123901367 69.99728393554688 C 34.55837249755859 69.99726867675781 34.55550384521484 69.99723815917969 34.55432510375977 69.99722290039062 C 34.54972457885742 69.99716186523438 34.54532241821289 69.99710845947266 34.54072189331055 69.99704742431641 C 34.53954315185547 69.99703216552734 34.53680419921875 69.99699401855469 34.53562545776367 69.99697875976562 C 34.52997970581055 69.99691009521484 34.52424621582031 69.99683380126953 34.51860046386719 69.99675750732422 C 34.5162467956543 69.99672698974609 34.51601791381836 69.99671936035156 34.51366806030273 69.99668884277344 C 34.50927352905273 69.99662780761719 34.50504684448242 69.99657440185547 34.50065612792969 69.99651336669922 C 34.49830627441406 69.99647521972656 34.49715423583984 69.9964599609375 34.49480438232422 69.99642944335938 C 34.48957824707031 69.99635314941406 34.48451995849609 69.99628448486328 34.47929382324219 69.99620819091797 C 34.47811889648438 69.99618530273438 34.47721862792969 69.99617767333984 34.47604370117188 69.99615478515625 C 34.47060775756836 69.99607849121094 34.46492767333984 69.99599456787109 34.45949172973633 69.99591064453125 C 34.45831680297852 69.99589538574219 34.45540237426758 69.995849609375 34.45422744750977 69.99582672119141 C 34.44983673095703 69.99576568603516 34.44500350952148 69.99568939208984 34.44061279296875 69.99562072753906 C 34.43826293945312 69.99558258056641 34.4382209777832 69.99558258056641 34.43587112426758 69.99554443359375 C 34.43022918701172 69.99545288085938 34.42476654052734 69.99536895751953 34.41912460327148 69.99527740478516 C 34.41677093505859 69.9952392578125 34.41532135009766 69.99521636962891 34.41297149658203 69.99517822265625 C 34.40921020507812 69.9951171875 34.40490341186523 69.99504089355469 34.40114212036133 69.99497985839844 C 34.39996719360352 69.99495697021484 34.39567947387695 69.99488830566406 34.39450454711914 69.99486541748047 C 34.38886642456055 69.99477386474609 34.383544921875 69.99468231201172 34.37790298461914 69.99458312988281 C 34.37672805786133 69.99456024169922 34.37443161010742 69.99452209472656 34.37325668334961 69.99449920654297 C 34.36907958984375 69.99443054199219 34.36477279663086 69.99435424804688 34.360595703125 69.99427795410156 C 34.35824584960938 69.99423217773438 34.35592651367188 69.99419403076172 34.35358047485352 69.99414825439453 C 34.34919357299805 69.99407196044922 34.34482192993164 69.99398803710938 34.34043884277344 69.99391174316406 C 34.33926391601562 69.99388885498047 34.33713912963867 69.99385070800781 34.33596420288086 69.99382781982422 C 34.33032608032227 69.99372100830078 34.32476425170898 69.99361419677734 34.31912612915039 69.99350738525391 C 34.31795120239258 69.99348449707031 34.31446075439453 69.99341583251953 34.31328582763672 69.99340057373047 C 34.30910873413086 69.99331665039062 34.30470275878906 69.99323272705078 34.30052947998047 69.99314880371094 C 34.29817962646484 69.99310302734375 34.29753875732422 69.99308776855469 34.29519271850586 69.9930419921875 C 34.28976440429688 69.99293518066406 34.28392791748047 69.99282073974609 34.27849960327148 69.99271392822266 C 34.27614974975586 69.99266052246094 34.2750129699707 69.99263763427734 34.27266693115234 69.99259185791016 C 34.26848983764648 69.99250793457031 34.26427459716797 69.99241638183594 34.26010131835938 69.99233245849609 C 34.25892639160156 69.9923095703125 34.25557708740234 69.99224090576172 34.25440216064453 69.99221801757812 C 34.2487678527832 69.99209594726562 34.24298095703125 69.99197387695312 34.23734664916992 69.99185180664062 C 34.23617172241211 69.99182891845703 34.23495483398438 69.99180603027344 34.23377990722656 69.99177551269531 C 34.22898101806641 69.99167633056641 34.22414779663086 69.99156951904297 34.2193489074707 69.99146270751953 C 34.21699905395508 69.99141693115234 34.21609497070312 69.99139404296875 34.2137451171875 69.99134063720703 C 34.20936584472656 69.99124908447266 34.20502471923828 69.99114990234375 34.20064163208008 69.99105072021484 C 34.19829559326172 69.99099731445312 34.19762802124023 69.99098205566406 34.19527816772461 69.99092864990234 C 34.18985366821289 69.99080657958984 34.1842041015625 69.99067687988281 34.17877960205078 69.99055480957031 C 34.17760848999023 69.99052429199219 34.1741828918457 69.99044799804688 34.17300796508789 69.99041748046875 C 34.16862869262695 69.99031829833984 34.16436004638672 69.99021911621094 34.15998077392578 69.99011993408203 C 34.15880584716797 69.99008941650391 34.15607070922852 69.99002075195312 34.15489959716797 69.98999786376953 C 34.14926910400391 69.98986053466797 34.14332580566406 69.98972320556641 34.1376953125 69.98958587646484 C 34.13534927368164 69.98952484130859 34.13563919067383 69.98953247070312 34.13329315185547 69.98947906494141 C 34.12870407104492 69.98936462402344 34.12418365478516 69.9892578125 34.11959838867188 69.98914337158203 C 34.11725234985352 69.98908233642578 34.11649322509766 69.98906707763672 34.1141471862793 69.98900604248047 C 34.10246658325195 69.98871612548828 34.09090805053711 69.98842620849609 34.0792350769043 69.98812103271484 C 34.07688903808594 69.98805999755859 34.07547378540039 69.98802947998047 34.0731315612793 69.98796844482422 C 34.06854248046875 69.98784637451172 34.06445693969727 69.98773956298828 34.05986785888672 69.98761749267578 C 34.05752563476562 69.98755645751953 34.05766296386719 69.98755645751953 34.05531692504883 69.98749542236328 C 34.04969024658203 69.98735046386719 34.04417037963867 69.98719787597656 34.03854370117188 69.98704528808594 C 34.03737258911133 69.98701477050781 34.03354263305664 69.98691558837891 34.03237152099609 69.98688507080078 C 34.02841186523438 69.98677062988281 34.02414321899414 69.98665618896484 34.02018356323242 69.98654937744141 C 34.01900863647461 69.98651885986328 34.01558685302734 69.98641967773438 34.0144157409668 69.98638916015625 C 34.0087890625 69.98623657226562 34.00307083129883 69.98607635498047 33.9974479675293 69.98591613769531 C 33.99627304077148 69.98588562011719 33.99433898925781 69.98583221435547 33.99316787719727 69.98579406738281 C 33.98858642578125 69.98566436767578 33.98405838012695 69.98553466796875 33.97947311401367 69.98540496826172 C 33.97713088989258 69.98533630371094 33.97605514526367 69.98530578613281 33.97371292114258 69.98524475097656 C 33.96892166137695 69.98509979248047 33.96420669555664 69.98497009277344 33.95941543579102 69.98482513427734 C 33.95824432373047 69.98479461669922 33.95586776733398 69.98472595214844 33.95469665527344 69.98468780517578 C 33.94948959350586 69.98453521728516 33.94417572021484 69.984375 33.93896865844727 69.98422241210938 C 33.93662643432617 69.98415374755859 33.93532180786133 69.98411560058594 33.93297958374023 69.98404693603516 C 33.92901992797852 69.98392486572266 33.92480087280273 69.98380279541016 33.92084503173828 69.98368072509766 C 33.91850280761719 69.98361206054688 33.91693496704102 69.98355865478516 33.91459274291992 69.98348999023438 C 33.90917587280273 69.98332214355469 33.90377044677734 69.98316192626953 33.89835739135742 69.98299407958984 C 33.89601516723633 69.98291778564453 33.89444351196289 69.98287200927734 33.8921012878418 69.98279571533203 C 33.88835525512695 69.98268127441406 33.88450241088867 69.98255920410156 33.88075637817383 69.98244476318359 C 33.87841415405273 69.98236846923828 33.87617492675781 69.9822998046875 33.87383270263672 69.98222351074219 C 33.86862945556641 69.98206329345703 33.863525390625 69.98189544677734 33.85832214355469 69.98172760009766 C 33.85597991943359 69.98165893554688 33.85414123535156 69.98159790039062 33.85179901123047 69.98152160644531 C 33.84784317016602 69.98139190673828 33.84415435791016 69.98127746582031 33.8401985168457 69.98114776611328 C 33.83786010742188 69.98107147216797 33.83525085449219 69.98098754882812 33.83290863037109 69.98090362548828 C 33.8287467956543 69.98077392578125 33.82439804077148 69.98062896728516 33.82023620605469 69.98049163818359 C 33.81906509399414 69.98045349121094 33.81680297851562 69.98037719726562 33.81563186645508 69.98033905029297 C 33.81001281738281 69.98014831542969 33.80491256713867 69.97998046875 33.79929351806641 69.97978973388672 C 33.79695129394531 69.97971343994141 33.79467391967773 69.97963714599609 33.79233551025391 69.97955322265625 C 33.78858947753906 69.97943115234375 33.78485870361328 69.97930145263672 33.78111267089844 69.97917175292969 C 33.77877426147461 69.97909545898438 33.77679824829102 69.97902679443359 33.77445602416992 69.97894287109375 C 33.76904678344727 69.978759765625 33.76371765136719 69.97857666015625 33.75830841064453 69.97838592529297 C 33.7559700012207 69.97830200195312 33.75429153442383 69.97824096679688 33.75194931030273 69.97816467285156 C 33.74820709228516 69.97802734375 33.74459457397461 69.9779052734375 33.74084854125977 69.97776794433594 C 33.73851013183594 69.97769165039062 33.73599243164062 69.97760009765625 33.7336540222168 69.97751617431641 C 33.72928619384766 69.97736358642578 33.72471237182617 69.97719573974609 33.72034454345703 69.97704315185547 C 33.7180061340332 69.97695922851562 33.71441650390625 69.97682952880859 33.71207809448242 69.97674560546875 C 33.70792007446289 69.97659301757812 33.70417022705078 69.97645568847656 33.70001220703125 69.97630310058594 C 33.69767379760742 69.97621917724609 33.69532775878906 69.97613525390625 33.69298934936523 69.97604370117188 C 33.68903732299805 69.97589874267578 33.68508148193359 69.97575378417969 33.68112945556641 69.97560882568359 C 33.67879104614258 69.97552490234375 33.67783355712891 69.97548675537109 33.67549514770508 69.97540283203125 C 33.67008972167969 69.97519683837891 33.66447448730469 69.97499084472656 33.6590690612793 69.97478485107422 C 33.65790176391602 69.97473907470703 33.65409469604492 69.97459411621094 33.65292358398438 69.97455596923828 C 33.64897537231445 69.97440338134766 33.64501571655273 69.97425079345703 33.64106369018555 69.97410583496094 C 33.63872909545898 69.97401428222656 33.63684463500977 69.97393798828125 33.6345100402832 69.97385406494141 C 33.62910461425781 69.97364807128906 33.62374496459961 69.97343444824219 33.61834335327148 69.97322845458984 C 33.61600494384766 69.97313690185547 33.61481857299805 69.97309112548828 33.61248016357422 69.97299957275391 C 33.6085319519043 69.97284698486328 33.60484313964844 69.97270202636719 33.60089492797852 69.97254943847656 C 33.59855651855469 69.97245788574219 33.59606170654297 69.97235870361328 33.59372329711914 69.97226715087891 C 33.58956909179688 69.97209930419922 33.58558654785156 69.97193908691406 33.58142852783203 69.97177886962891 C 33.57909393310547 69.9716796875 33.57451629638672 69.97149658203125 33.57218170166016 69.97140502929688 C 33.56843948364258 69.97125244140625 33.56436538696289 69.97109222412109 33.56062698364258 69.97093963623047 C 33.55828857421875 69.97084808349609 33.55491638183594 69.97071075439453 33.55257797241211 69.97061157226562 C 33.54904937744141 69.97046661376953 33.54560470581055 69.97032928466797 33.54207229614258 69.97018432617188 C 33.53973770141602 69.97008514404297 33.53780364990234 69.97000885009766 33.53546524047852 69.96991729736328 C 33.5302734375 69.96970367431641 33.52499771118164 69.969482421875 33.51980590820312 69.96926879882812 C 33.51630401611328 69.9691162109375 33.51558303833008 69.96909332275391 33.51207733154297 69.96894073486328 C 33.50854873657227 69.96879577636719 33.50541305541992 69.96866607666016 33.50188446044922 69.96851348876953 C 33.49837875366211 69.96836853027344 33.49799346923828 69.96835327148438 33.49449157714844 69.96820068359375 C 33.48992538452148 69.96800994873047 33.48555755615234 69.96782684326172 33.48099136352539 69.96762847900391 C 33.47748947143555 69.96748352050781 33.47453689575195 69.96735382080078 33.47103500366211 69.96720123291016 C 33.46791839599609 69.96707153320312 33.46500396728516 69.96694183349609 33.46189117431641 69.96681213378906 C 33.45955657958984 69.96670532226562 33.45570755004883 69.96653747558594 33.45337295532227 69.96643829345703 C 33.44984436035156 69.96628570556641 33.4465217590332 69.96614074707031 33.4429931640625 69.96598815917969 C 33.43949127197266 69.96583557128906 33.43700790405273 69.96572113037109 33.43350601196289 69.96556854248047 C 33.42914581298828 69.96537780761719 33.42490768432617 69.96518707275391 33.42055130004883 69.96499633789062 C 33.41821670532227 69.96488952636719 33.41534805297852 69.96476745605469 33.41301345825195 69.96466064453125 C 33.40969467163086 69.96451568603516 33.4066047668457 69.96437835693359 33.40328598022461 69.96422576904297 C 33.40095138549805 69.96411895751953 33.39756393432617 69.96396636962891 33.39523315429688 69.9638671875 C 33.39025115966797 69.96363830566406 33.38489532470703 69.96339416503906 33.37991714477539 69.96316528320312 C 33.37758255004883 69.96306610107422 33.37519073486328 69.96295166015625 33.37285614013672 69.96284484863281 C 33.36933135986328 69.96268463134766 33.36581039428711 69.9625244140625 33.36228179931641 69.96236419677734 C 33.35995101928711 69.96224975585938 33.35702514648438 69.96212005615234 33.35469055175781 69.96201324462891 C 33.34992218017578 69.9617919921875 33.34540176391602 69.96157836914062 33.34063339233398 69.96135711669922 C 33.33713531494141 69.96119689941406 33.33668518066406 69.96117401123047 33.33318710327148 69.96100616455078 C 33.32945251464844 69.96083068847656 33.32538986206055 69.96063995361328 33.32165908813477 69.96046447753906 C 33.31932830810547 69.96035766601562 33.31661605834961 69.96022796630859 33.31428527832031 69.96012115478516 C 33.31034469604492 69.95993041992188 33.306396484375 69.95973968505859 33.30245971679688 69.95955657958984 C 33.30012512207031 69.95944213867188 33.29919052124023 69.95939636230469 33.29685974121094 69.95928955078125 C 33.29167556762695 69.95903778076172 33.28623962402344 69.95877838134766 33.28105545043945 69.95852661132812 C 33.27872467041016 69.95841217041016 33.27582168579102 69.95827484130859 33.27349090576172 69.95816040039062 C 33.27017211914062 69.95800018310547 33.26628112792969 69.95780944824219 33.26296615600586 69.95764923095703 C 33.26063537597656 69.95753479003906 33.25848770141602 69.95742797851562 33.25615310668945 69.95731353759766 C 33.25076675415039 69.95704650878906 33.24579620361328 69.95680236816406 33.24040985107422 69.95653533935547 C 33.23807907104492 69.9564208984375 33.23551940917969 69.95629119873047 33.23318862915039 69.9561767578125 C 33.22946166992188 69.95599365234375 33.22623443603516 69.95583343505859 33.22250366210938 69.95564270019531 C 33.22017288208008 69.95552825927734 33.21786117553711 69.95541381835938 33.21553039550781 69.95529937744141 C 33.21076583862305 69.95505523681641 33.20590591430664 69.95481109619141 33.20114135742188 69.95457458496094 C 33.19881057739258 69.95445251464844 33.19721221923828 69.95436859130859 33.19488525390625 69.95425415039062 C 33.19074249267578 69.95404052734375 33.18634414672852 69.95381927490234 33.18220138549805 69.95360565185547 C 33.17987060546875 69.9534912109375 33.17681503295898 69.95333099365234 33.17448425292969 69.95320892333984 C 33.17116928100586 69.95304107666016 33.1677360534668 69.95286560058594 33.16442108154297 69.95269012451172 C 33.16209030151367 69.95257568359375 33.15934371948242 69.95243072509766 33.15701675415039 69.95230865478516 C 33.15204620361328 69.95204925537109 33.146728515625 69.95177459716797 33.14175796508789 69.95151519775391 C 33.13826370239258 69.95133209228516 33.13703918457031 69.95127105712891 33.133544921875 69.95108032226562 C 33.13064575195312 69.950927734375 33.12758255004883 69.95076751708984 33.12468338012695 69.95061492919922 C 33.12118911743164 69.95043182373047 33.11941528320312 69.95034027099609 33.11592102050781 69.95015716552734 C 33.11198806762695 69.94994354248047 33.10824203491211 69.94974517822266 33.10430526733398 69.94953155517578 C 33.10081481933594 69.94934844970703 33.09638214111328 69.94911193847656 33.09288787841797 69.94892120361328 C 33.08999252319336 69.94876861572266 33.08693695068359 69.94860076904297 33.08404159545898 69.94844818115234 C 33.08171081542969 69.94831848144531 33.07747268676758 69.94808959960938 33.07514572143555 69.94796752929688 C 33.07224655151367 69.94780731201172 33.0692024230957 69.94764709472656 33.06630706787109 69.94748687744141 C 33.06164932250977 69.94723510742188 33.05758285522461 69.94701385498047 33.05292892456055 69.94675445556641 C 33.04961776733398 69.94657135009766 33.04664993286133 69.9464111328125 33.04333877563477 69.94622802734375 C 33.04101181030273 69.94609832763672 33.03709411621094 69.94588470458984 33.03476715087891 69.94575500488281 C 33.03166198730469 69.94558715820312 33.02858734130859 69.94541168212891 33.02548217773438 69.94523620605469 C 33.02315521240234 69.94511413574219 33.01985931396484 69.94493103027344 33.01753234863281 69.94479370117188 C 33.01277160644531 69.94453430175781 33.00749588012695 69.94423675537109 33.00273513793945 69.9439697265625 C 32.99924468994141 69.94377136230469 32.99725723266602 69.94365692138672 32.99377059936523 69.94345855712891 C 32.99108123779297 69.94331359863281 32.98810958862305 69.94313812255859 32.98542022705078 69.94298553466797 C 32.98192977905273 69.94279479980469 32.98041152954102 69.94270324707031 32.97692108154297 69.9425048828125 C 32.97299194335938 69.94228363037109 32.96874237060547 69.94203948974609 32.96481323242188 69.94181060791016 C 32.96132278442383 69.94161224365234 32.95729064941406 69.94138336181641 32.95380020141602 69.94117736816406 C 32.95069885253906 69.94100189208984 32.94785690307617 69.94083404541016 32.94475173950195 69.94065856933594 C 32.94242858886719 69.94052124023438 32.93830871582031 69.94028472900391 32.93598556518555 69.94014739990234 C 32.93309020996094 69.93997955322266 32.92990112304688 69.93979644775391 32.92700576782227 69.93962860107422 C 32.92235565185547 69.93935394287109 32.9186897277832 69.93914031982422 32.91403961181641 69.93886566162109 C 32.91073226928711 69.93867492675781 32.90754699707031 69.93848419189453 32.90423965454102 69.93828582763672 C 32.90075302124023 69.93807983398438 32.8988151550293 69.93796539306641 32.89532852172852 69.93775939941406 C 32.89222717285156 69.93757629394531 32.88959503173828 69.93742370605469 32.88649368286133 69.93723297119141 C 32.88300704956055 69.93702697753906 32.88188171386719 69.93695831298828 32.87839508056641 69.93675231933594 C 32.87343215942383 69.93645477294922 32.86808395385742 69.93613433837891 32.86312484741211 69.93583679199219 C 32.86080169677734 69.93569946289062 32.85758590698242 69.93550109863281 32.85525894165039 69.93536376953125 C 32.8521614074707 69.93517303466797 32.84932708740234 69.93500518798828 32.84622955322266 69.934814453125 C 32.84274291992188 69.93460083007812 32.8408088684082 69.93448638916016 32.83732223510742 69.93427276611328 C 32.83443069458008 69.93409729003906 32.83149337768555 69.93391418457031 32.8286018371582 69.93373870849609 C 32.82395172119141 69.93345642089844 32.81912231445312 69.93315887451172 32.81447601318359 69.93286895751953 C 32.81158447265625 69.93269348144531 32.80845260620117 69.93250274658203 32.80556106567383 69.93231964111328 C 32.80323791503906 69.93218231201172 32.79917144775391 69.93192291259766 32.79684829711914 69.93178558349609 C 32.7939567565918 69.93160247802734 32.79101181030273 69.93141937255859 32.78812026977539 69.93123626708984 C 32.78463363647461 69.93102264404297 32.77847290039062 69.93063354492188 32.77499008178711 69.930419921875 C 32.77189254760742 69.93022155761719 32.76839065551758 69.93000030517578 32.76529312133789 69.9298095703125 C 32.76181030273438 69.92958831787109 32.75965118408203 69.92945098876953 32.75616836547852 69.92922973632812 C 32.75327682495117 69.92904663085938 32.75044631958008 69.92887115478516 32.74755859375 69.92868804931641 C 32.74407196044922 69.928466796875 32.74258422851562 69.92836761474609 32.73910140991211 69.92814636230469 C 32.73476791381836 69.92787170410156 32.72997283935547 69.92756652832031 32.72563552856445 69.92728424072266 C 32.72331237792969 69.92713928222656 32.7180290222168 69.92679595947266 32.7157096862793 69.92665100097656 C 32.71281814575195 69.92646026611328 32.71004867553711 69.92628479003906 32.70716094970703 69.92609405517578 C 32.70483779907227 69.92594909667969 32.70088195800781 69.92568969726562 32.69856262207031 69.925537109375 C 32.69546508789062 69.92533874511719 32.69246673583984 69.92514038085938 32.68937301635742 69.92494201660156 C 32.68473052978516 69.92463684082031 32.67942810058594 69.92429351806641 32.67478561401367 69.92398834228516 C 32.67210006713867 69.92381286621094 32.66965484619141 69.92365264892578 32.66696929931641 69.92347717285156 C 32.66349029541016 69.92324829101562 32.66097259521484 69.92308044433594 32.65748977661133 69.9228515625 C 32.65480804443359 69.92267608642578 32.65210723876953 69.92249298095703 32.6494255065918 69.92231750488281 C 32.6471061706543 69.92216491699219 32.64316940307617 69.92189788818359 32.64085006713867 69.92174530029297 C 32.63589859008789 69.92141723632812 32.63109588623047 69.92109680175781 32.62614440917969 69.92076873779297 C 32.62266540527344 69.9205322265625 32.6204719543457 69.92038726806641 32.61698913574219 69.92015075683594 C 32.61451721191406 69.91998291015625 32.61189270019531 69.91980743408203 32.60942077636719 69.91963958740234 C 32.60593795776367 69.91940307617188 32.60313415527344 69.91921997070312 32.59965515136719 69.91898345947266 C 32.59676742553711 69.91878509521484 32.59396362304688 69.91859436035156 32.5910758972168 69.91839599609375 C 32.5864372253418 69.91808319091797 32.58123016357422 69.917724609375 32.57659149169922 69.91741180419922 C 32.57390975952148 69.91722869873047 32.57124710083008 69.91704559326172 32.56856536865234 69.91686248779297 C 32.56624984741211 69.91670227050781 32.56178283691406 69.91639709472656 32.55946350097656 69.91623687744141 C 32.55657958984375 69.91603851318359 32.55385208129883 69.91584777832031 32.55096817016602 69.9156494140625 C 32.54632949829102 69.91532897949219 32.5412712097168 69.91497802734375 32.5366325378418 69.91465759277344 C 32.53374862670898 69.91445159912109 32.53077697753906 69.91424560546875 32.52788925170898 69.91404724121094 C 32.5244140625 69.91380310058594 32.52210235595703 69.91364288330078 32.51862716674805 69.91339874267578 C 32.51615142822266 69.91322326660156 32.51345062255859 69.91303253173828 32.5109748840332 69.91286468505859 C 32.50749969482422 69.91262054443359 32.50518417358398 69.91245269775391 32.501708984375 69.91220855712891 C 32.49696731567383 69.91187286376953 32.49246597290039 69.91156005859375 32.48772430419922 69.91122436523438 C 32.48424911499023 69.91097259521484 32.4810791015625 69.91075134277344 32.47760009765625 69.91049957275391 C 32.47533416748047 69.91033935546875 32.47304534912109 69.91017913818359 32.47077941894531 69.91001129150391 C 32.46730041503906 69.90976715087891 32.46427536010742 69.90955352783203 32.46080017089844 69.9093017578125 C 32.458740234375 69.90915679931641 32.45688247680664 69.90901947021484 32.4548225402832 69.90887451171875 C 32.44786834716797 69.90837097167969 32.44321823120117 69.90803527832031 32.4362678527832 69.90753173828125 C 32.43420791625977 69.90738677978516 32.43246078491211 69.90725708007812 32.43040084838867 69.9071044921875 C 32.42692565917969 69.90685272216797 32.42378616333008 69.90663146972656 32.42031097412109 69.9063720703125 C 32.41804504394531 69.90621185302734 32.41563034057617 69.90603637695312 32.41336441040039 69.90586853027344 C 32.40757369995117 69.90544128417969 32.40177917480469 69.90502166748047 32.39598846435547 69.90459442138672 C 32.39372634887695 69.90442657470703 32.39175796508789 69.90428161621094 32.38949203491211 69.90411376953125 C 32.38601684570312 69.90386199951172 32.38286972045898 69.90362548828125 32.37939453125 69.90336608886719 C 32.37733840942383 69.90322113037109 32.37509536743164 69.90305328369141 32.3730354309082 69.90290069580078 C 32.36956405639648 69.90264129638672 32.36624526977539 69.90239715576172 32.36277008056641 69.90213775634766 C 32.36030197143555 69.90195465087891 32.35761260986328 69.90174865722656 32.35514068603516 69.90156555175781 C 32.3493537902832 69.90113067626953 32.34515380859375 69.90081787109375 32.3393669128418 69.90038299560547 C 32.33689498901367 69.90019989013672 32.33428955078125 69.90000152587891 32.33182144165039 69.89981842041016 C 32.32835006713867 69.89955139160156 32.32584381103516 69.89936828613281 32.32236862182617 69.89910125732422 C 32.31928253173828 69.89887237548828 32.3165283203125 69.89865875244141 32.31344223022461 69.89842224121094 C 32.30881118774414 69.8980712890625 32.30406188964844 69.89771270751953 32.29943084716797 69.89736175537109 C 32.29675674438477 69.89715576171875 32.29414749145508 69.89695739746094 32.29146957397461 69.89675140380859 C 32.28799819946289 69.896484375 32.28519821166992 69.89627075195312 32.2817268371582 69.89600372314453 C 32.27925872802734 69.89581298828125 32.27699279785156 69.89563751220703 32.2745246887207 69.89544677734375 C 32.26874160766602 69.89500427246094 32.26369476318359 69.89461517333984 32.25791168212891 69.8941650390625 C 32.25564956665039 69.89398956298828 32.25314331054688 69.893798828125 32.25088119506836 69.89362335205078 C 32.24741363525391 69.89334869384766 32.24437713623047 69.89311218261719 32.24090576171875 69.89284515380859 C 32.23864364624023 69.89266967773438 32.23654937744141 69.89250183105469 32.23428726196289 69.89232635498047 C 32.23081588745117 69.89205932617188 32.22762298583984 69.89180755615234 32.22415161132812 69.89153289794922 C 32.22271347045898 69.89141845703125 32.22087097167969 69.89127349853516 32.21943283081055 69.89116668701172 C 32.21249389648438 69.89061737060547 32.20710372924805 69.89019012451172 32.20016479492188 69.88964080810547 C 32.1981086730957 69.88948059082031 32.19575119018555 69.88929748535156 32.19369506835938 69.88912963867188 C 32.19022750854492 69.88885498046875 32.18682861328125 69.88858795166016 32.1833610534668 69.88831329345703 C 32.18151092529297 69.88816070556641 32.17975616455078 69.88802337646484 32.17790603637695 69.88787078857422 C 32.17097091674805 69.88732147216797 32.1652946472168 69.88686370849609 32.15835952758789 69.88630676269531 C 32.15671539306641 69.88617706298828 32.15513610839844 69.88604736328125 32.15349197387695 69.88591766357422 C 32.1500244140625 69.88564300537109 32.14594268798828 69.88530731201172 32.14247512817383 69.88503265380859 C 32.14083099365234 69.88489532470703 32.13922119140625 69.884765625 32.13757705688477 69.88463592529297 C 32.12601852416992 69.88369750976562 32.11367416381836 69.8826904296875 32.10211944580078 69.88174438476562 C 32.10027313232422 69.881591796875 32.09785842895508 69.88139343261719 32.09600830078125 69.88124084472656 C 32.0925407409668 69.88095855712891 32.08930587768555 69.88069152832031 32.08584213256836 69.88040924072266 C 32.08378601074219 69.88024139404297 32.08160400390625 69.88005828857422 32.07954788208008 69.87989044189453 C 32.07377243041992 69.87940979003906 32.06714630126953 69.87886047363281 32.06137084960938 69.87837982177734 C 32.05952453613281 69.87822723388672 32.05746841430664 69.87805938720703 32.05561828613281 69.87790679931641 C 32.05215454101562 69.87761688232422 32.04825973510742 69.87728881835938 32.04479598999023 69.87699890136719 C 32.04315185546875 69.87686157226562 32.04127502441406 69.876708984375 32.03963088989258 69.87657165527344 C 32.0327033996582 69.87598419189453 32.02587509155273 69.87541198730469 32.01894760131836 69.87483215332031 C 32.01792144775391 69.87474060058594 32.01630783081055 69.87461090087891 32.01528167724609 69.87451934814453 C 32.01181793212891 69.87422943115234 32.00764083862305 69.87387084960938 32.00417709350586 69.87358093261719 C 32.0023307800293 69.87342071533203 32.00048446655273 69.87326812744141 31.99863815307617 69.87310791015625 C 31.98709487915039 69.87213134765625 31.97515487670898 69.87110900878906 31.9636116027832 69.8701171875 C 31.9615592956543 69.86994171142578 31.96002197265625 69.86981201171875 31.95796966552734 69.86963653564453 C 31.95450592041016 69.86933135986328 31.95071792602539 69.86901092529297 31.94725799560547 69.86870574951172 C 31.94561386108398 69.86856842041016 31.94400405883789 69.86843109130859 31.94236373901367 69.8682861328125 C 31.93544006347656 69.86768341064453 31.93052673339844 69.86726379394531 31.92360687255859 69.86665344238281 C 31.92134857177734 69.86646270751953 31.91927719116211 69.86627960205078 31.91701889038086 69.86608123779297 C 31.91355895996094 69.86578369140625 31.91009140014648 69.865478515625 31.90663146972656 69.86517333984375 C 31.90499114990234 69.86502838134766 31.90317535400391 69.86487579345703 31.90153503417969 69.86473083496094 C 31.89461135864258 69.86412048339844 31.88759994506836 69.86350250244141 31.88068008422852 69.86289215087891 C 31.87944793701172 69.86278533935547 31.87805938720703 69.86266326904297 31.8768310546875 69.86255645751953 C 31.87337112426758 69.86224365234375 31.87005615234375 69.86195373535156 31.86659622192383 69.86164855957031 C 31.86434173583984 69.86144256591797 31.8621711730957 69.86125183105469 31.85991668701172 69.86105346679688 C 31.84838485717773 69.86003112792969 31.83647918701172 69.85896301269531 31.824951171875 69.85792541503906 C 31.82351303100586 69.85779571533203 31.82171249389648 69.85763549804688 31.82027435302734 69.85750579833984 C 31.81566619873047 69.85709381103516 31.81343841552734 69.85688781738281 31.8088264465332 69.85647583007812 C 31.80759811401367 69.85636138916016 31.80655288696289 69.85626983642578 31.80532455444336 69.85615539550781 C 31.79840850830078 69.85552978515625 31.78957748413086 69.85472869873047 31.78266525268555 69.85409545898438 C 31.78184509277344 69.85402679443359 31.78067398071289 69.85391998291016 31.77985382080078 69.85384368896484 C 31.77524185180664 69.85342407226562 31.77263641357422 69.85317993164062 31.76802825927734 69.85276031494141 C 31.76659393310547 69.85263061523438 31.76531982421875 69.85251617431641 31.76388549804688 69.85237884521484 C 31.75236129760742 69.85132598876953 31.7387809753418 69.85007476806641 31.72726440429688 69.84900665283203 C 31.725830078125 69.84886932373047 31.7244987487793 69.84874725341797 31.72306442260742 69.84861755371094 C 31.7115478515625 69.84754180908203 31.69751358032227 69.84623718261719 31.68599700927734 69.84515380859375 C 31.68497467041016 69.84505462646484 31.6835823059082 69.84492492675781 31.68255615234375 69.84483337402344 C 31.67795181274414 69.84439849853516 31.6751823425293 69.84413909912109 31.67057800292969 69.84370422363281 C 31.66955184936523 69.84360504150391 31.66867065429688 69.84352111816406 31.66764831542969 69.84342193603516 C 31.66073989868164 69.8427734375 31.65277862548828 69.84201812744141 31.6458740234375 69.84136199951172 C 31.64423370361328 69.84120941162109 31.64297103881836 69.84108734130859 31.64133453369141 69.84092712402344 C 31.63788223266602 69.84059906005859 31.63380813598633 69.8402099609375 31.63035583496094 69.83988189697266 C 31.62871932983398 69.83972930908203 31.62729263305664 69.83959197998047 31.62565612792969 69.83943176269531 C 31.6141471862793 69.83833312988281 31.60147094726562 69.83711242675781 31.5899658203125 69.83599853515625 C 31.5881233215332 69.83582305908203 31.5865592956543 69.83567047119141 31.58472061157227 69.83549499511719 C 31.58126831054688 69.83515930175781 31.57674789428711 69.83472442626953 31.57329559326172 69.83438873291016 C 31.57308959960938 69.83436584472656 31.57286834716797 69.83434295654297 31.57266616821289 69.83432769775391 C 31.56460952758789 69.83354187011719 31.55668640136719 69.83277130126953 31.54863357543945 69.83197784423828 C 31.54720306396484 69.83184051513672 31.54571914672852 69.83169555664062 31.54428863525391 69.83155822753906 C 31.53968811035156 69.83110046386719 31.53775787353516 69.83091735839844 31.53315734863281 69.83045959472656 C 31.5317268371582 69.830322265625 31.52990341186523 69.83013916015625 31.52847290039062 69.83000183105469 C 31.52042388916016 69.82920837402344 31.51264953613281 69.82843780517578 31.50460052490234 69.82764434814453 C 31.50439453125 69.82762145996094 31.50435638427734 69.82762145996094 31.50415420532227 69.82759857177734 C 31.49955368041992 69.82714080810547 31.49646759033203 69.82683563232422 31.49186706542969 69.82637786865234 C 31.49063873291016 69.82625579833984 31.48956680297852 69.82614898681641 31.48833847045898 69.82602691650391 C 31.47684097290039 69.82488250732422 31.46310424804688 69.82350158691406 31.45161056518555 69.82234954833984 C 31.45018005371094 69.82220458984375 31.44864654541016 69.82205200195312 31.44721603393555 69.82190704345703 C 31.44376754760742 69.82155609130859 31.43910598754883 69.82108306884766 31.4356575012207 69.82073974609375 C 31.43484115600586 69.82065582275391 31.43371200561523 69.82054138183594 31.43289566040039 69.82045745849609 C 31.42600250244141 69.81976318359375 31.41787719726562 69.81893920898438 31.41098403930664 69.81822967529297 C 31.40955352783203 69.81808471679688 31.40800094604492 69.81793212890625 31.40657043457031 69.81778717041016 C 31.40197372436523 69.81731414794922 31.39995574951172 69.81710815429688 31.39536285400391 69.81663513183594 C 31.3939323425293 69.81649017333984 31.39226913452148 69.81632232666016 31.39083862304688 69.81617736816406 C 31.38279724121094 69.81535339355469 31.37588882446289 69.81464385986328 31.36785125732422 69.81381225585938 C 31.36723709106445 69.81375122070312 31.36674118041992 69.81369781494141 31.36612701416016 69.81363677978516 C 31.3626823425293 69.81327819824219 31.35772705078125 69.81276702880859 31.35428237915039 69.81240844726562 C 31.3532600402832 69.81230926513672 31.35178375244141 69.81214904785156 31.35076141357422 69.81204986572266 C 31.33927917480469 69.81085968017578 31.3255615234375 69.80942535400391 31.31407928466797 69.8082275390625 C 31.31244659423828 69.80805969238281 31.31119918823242 69.80792236328125 31.30956649780273 69.80775451660156 C 31.30497360229492 69.80727386474609 31.30226898193359 69.80699157714844 31.29767990112305 69.80650329589844 C 31.29727172851562 69.80646514892578 31.29685211181641 69.80641937255859 31.29644393920898 69.80637359619141 C 31.28726196289062 69.80541229248047 31.27998733520508 69.80464172363281 31.27080917358398 69.80367279052734 C 31.27040100097656 69.80362701416016 31.27005004882812 69.8035888671875 31.2696418762207 69.80355072021484 C 31.26504898071289 69.80306243896484 31.2619743347168 69.802734375 31.25738525390625 69.80224609375 C 31.25616073608398 69.80211639404297 31.25495529174805 69.80198669433594 31.25373077392578 69.80185699462891 C 31.24225616455078 69.80063629150391 31.22823715209961 69.79914093017578 31.21676635742188 69.79790496826172 C 31.21554565429688 69.79777526855469 31.21419143676758 69.79763031005859 31.21296691894531 69.79749298095703 C 31.20149612426758 69.7962646484375 31.18697738647461 69.79469299316406 31.17551040649414 69.79344940185547 C 31.17449188232422 69.7933349609375 31.17353439331055 69.79322814941406 31.17251205444336 69.79312133789062 C 31.16792678833008 69.79262542724609 31.16480255126953 69.79228210449219 31.16021728515625 69.79177856445312 C 31.15980911254883 69.79173278808594 31.15891647338867 69.79164123535156 31.15851211547852 69.79159545898438 C 31.14475250244141 69.79009246826172 31.13324737548828 69.78883361816406 31.1194953918457 69.78731536865234 C 31.11867904663086 69.78722381591797 31.1179313659668 69.78713989257812 31.11711502075195 69.78704833984375 C 31.10336303710938 69.78553009033203 31.09263229370117 69.78433990478516 31.07888412475586 69.78280639648438 C 31.07806777954102 69.78272247314453 31.07683181762695 69.78257751464844 31.07601928710938 69.78249359130859 C 31.06227111816406 69.78096008300781 31.05081176757812 69.77967071533203 31.03706741333008 69.77812194824219 C 31.03645706176758 69.77805328369141 31.03619766235352 69.77802276611328 31.03558731079102 69.7779541015625 C 31.031005859375 69.77744293212891 31.02725219726562 69.77701568603516 31.02267074584961 69.77649688720703 C 31.02226257324219 69.77645111083984 31.02162551879883 69.77638244628906 31.02122116088867 69.77633666992188 C 31.00862121582031 69.77490997314453 30.99549865722656 69.77341461181641 30.98290634155273 69.77198028564453 C 30.98148345947266 69.77181243896484 30.98004913330078 69.77165222167969 30.97862243652344 69.771484375 C 30.96603012084961 69.77004241943359 30.95360565185547 69.76861572265625 30.94101715087891 69.76716613769531 C 30.94020462036133 69.76706695556641 30.93983459472656 69.76702880859375 30.93902206420898 69.76693725585938 C 30.93444442749023 69.76640319824219 30.93088150024414 69.7659912109375 30.92630386352539 69.76546478271484 C 30.92610168457031 69.76544189453125 30.92553329467773 69.76537322998047 30.92533111572266 69.76535034179688 C 30.91617584228516 69.76428985595703 30.90871047973633 69.76342010498047 30.89955902099609 69.76235198974609 C 30.89915466308594 69.76230621337891 30.89875030517578 69.76226043701172 30.89834213256836 69.76220703125 C 30.89376831054688 69.76167297363281 30.88989639282227 69.76122283935547 30.88531875610352 69.76068878173828 C 30.88491439819336 69.76064300537109 30.88460540771484 69.76060485839844 30.88419723510742 69.76055908203125 C 30.8704719543457 69.75894927978516 30.85839080810547 69.75752258300781 30.84467315673828 69.75590515136719 C 30.84406280517578 69.75582885742188 30.84344100952148 69.75576019287109 30.84283065795898 69.75568389892578 C 30.82910919189453 69.75405883789062 30.81661224365234 69.75257873535156 30.80289459228516 69.75093841552734 C 30.80269241333008 69.75090789794922 30.80264663696289 69.75090789794922 30.80244445800781 69.75088500976562 C 30.78872680664062 69.74924468994141 30.77558898925781 69.74766540527344 30.76187515258789 69.74600982666016 C 30.76167297363281 69.74598693847656 30.76155090332031 69.7459716796875 30.76134872436523 69.74594879150391 C 30.75677871704102 69.74539184570312 30.75299453735352 69.74493408203125 30.7484245300293 69.744384765625 C 30.7478141784668 69.74430847167969 30.74721145629883 69.74423217773438 30.74660491943359 69.74416351318359 C 30.73289489746094 69.74250030517578 30.7215461730957 69.74111938476562 30.70783996582031 69.73944091796875 C 30.70702743530273 69.73934173583984 30.70629501342773 69.7392578125 30.70548248291016 69.73915863037109 C 30.69177627563477 69.73748016357422 30.68001937866211 69.73603057861328 30.66632080078125 69.73434448242188 C 30.66591644287109 69.73429107666016 30.66555786132812 69.73424530029297 30.66515350341797 69.73419952392578 C 30.66058349609375 69.73363494873047 30.65686798095703 69.73317718505859 30.65230178833008 69.73260498046875 C 30.65169143676758 69.73252868652344 30.65120697021484 69.73247528076172 30.65060043334961 69.73239898681641 C 30.63690185546875 69.73069763183594 30.62540054321289 69.72927093505859 30.6117057800293 69.72755432128906 C 30.61109924316406 69.72747802734375 30.61003875732422 69.72734832763672 30.60942840576172 69.72727203369141 C 30.59573364257812 69.72555541992188 30.58481979370117 69.72418212890625 30.57112884521484 69.72245788574219 C 30.57032012939453 69.72235107421875 30.56945419311523 69.72224426269531 30.56864547729492 69.72213745117188 C 30.55495452880859 69.72041320800781 30.54253005981445 69.71883392333984 30.52884674072266 69.71708679199219 C 30.52884674072266 69.71708679199219 30.52851486206055 69.71704864501953 30.52851486206055 69.71704864501953 C 30.52395248413086 69.71646881103516 30.52005767822266 69.71596527099609 30.51549911499023 69.71538543701172 C 30.51488876342773 69.71530914306641 30.51422500610352 69.71522521972656 30.51361846923828 69.71514129638672 C 30.49993515014648 69.71339416503906 30.48831176757812 69.71189880371094 30.47463607788086 69.71013641357422 C 30.47402954101562 69.71005249023438 30.47362518310547 69.70999908447266 30.47301483154297 69.70992279052734 C 30.46047973632812 69.70830535888672 30.4473762512207 69.70660400390625 30.43484115600586 69.70497131347656 C 30.43362808227539 69.70481109619141 30.43278884887695 69.70470428466797 30.43157196044922 69.70454406738281 C 30.4133415222168 69.70217132568359 30.39720153808594 69.70005798339844 30.37897872924805 69.69764709472656 C 30.37817001342773 69.69754028320312 30.37760543823242 69.69747161865234 30.37679290771484 69.69736480712891 C 30.36312866210938 69.695556640625 30.35186386108398 69.69406890869141 30.33820343017578 69.69224548339844 C 30.33759689331055 69.69216918945312 30.33682632446289 69.69206237792969 30.33621978759766 69.69198608398438 C 30.32255935668945 69.69016265869141 30.31087493896484 69.68860626220703 30.29721832275391 69.686767578125 C 30.29681396484375 69.68671417236328 30.29612731933594 69.68662261962891 30.29572296142578 69.68656921386719 C 30.27751541137695 69.68412017822266 30.26004409790039 69.6817626953125 30.24184417724609 69.67929077148438 C 30.24164199829102 69.67926025390625 30.24142837524414 69.67922973632812 30.24122619628906 69.67920684814453 C 30.22757720947266 69.67734527587891 30.21519088745117 69.6756591796875 30.20154571533203 69.67378234863281 C 30.20114135742188 69.67372894287109 30.20037460327148 69.67362213134766 30.19997024536133 69.67356872558594 C 30.18746185302734 69.67185211181641 30.17406463623047 69.67000579833984 30.16156005859375 69.66828155517578 C 30.16075134277344 69.66816711425781 30.15975189208984 69.66802978515625 30.1589469909668 69.66791534423828 C 30.15439987182617 69.66728973388672 30.15115737915039 69.66683959960938 30.14661407470703 69.66620635986328 C 30.1460075378418 69.66612243652344 30.14546203613281 69.66605377197266 30.14485549926758 69.66596984863281 C 30.13122177124023 69.66407775878906 30.12010955810547 69.66252899169922 30.10647964477539 69.66062164306641 C 30.10567092895508 69.66050720214844 30.10443496704102 69.66033172607422 30.1036262512207 69.66021728515625 C 30.08999633789062 69.65830993652344 30.07906341552734 69.65677642822266 30.06543731689453 69.65485382080078 C 30.0648307800293 69.65476989746094 30.06417465209961 69.65467071533203 30.06356811523438 69.65458679199219 C 30.04994201660156 69.65266418457031 30.03758239746094 69.65090942382812 30.02396011352539 69.64897155761719 C 30.02375793457031 69.64894866943359 30.02347564697266 69.64890289306641 30.02327346801758 69.64888000488281 C 30.01873397827148 69.64823150634766 30.01476669311523 69.64766693115234 30.01022338867188 69.64701843261719 C 30.00962066650391 69.64692687988281 30.00950622558594 69.64691162109375 30.0088996887207 69.64682769775391 C 29.99528121948242 69.64488220214844 29.98347091674805 69.6431884765625 29.96985244750977 69.64122772216797 C 29.9692497253418 69.64114379882812 29.96863555908203 69.64105224609375 29.9680290222168 69.64096832275391 C 29.95441436767578 69.63900756835938 29.94250106811523 69.63728332519531 29.92889022827148 69.63530731201172 C 29.92848968505859 69.63525390625 29.92809677124023 69.63519287109375 29.92769241333008 69.6351318359375 C 29.92315673828125 69.63447570800781 29.91914367675781 69.63389587402344 29.91460800170898 69.63323211669922 C 29.91440582275391 69.63320159912109 29.91438293457031 69.63320159912109 29.9141845703125 69.63317108154297 C 29.90624618530273 69.63201904296875 29.89749526977539 69.6307373046875 29.88955688476562 69.62957763671875 C 29.8885498046875 69.62943267822266 29.88767623901367 69.62930297851562 29.88666915893555 69.62915802001953 C 29.88213348388672 69.62849426269531 29.87920761108398 69.62805938720703 29.87467193603516 69.62739562988281 C 29.87366485595703 69.62725067138672 29.87314224243164 69.62717437744141 29.87213134765625 69.62702178955078 C 29.85966491699219 69.62519073486328 29.84774017333984 69.62343597412109 29.83527755737305 69.62158966064453 C 29.83386611938477 69.62138366699219 29.83217239379883 69.62113189697266 29.83076095581055 69.62092590332031 C 29.81829452514648 69.61907958984375 29.80619049072266 69.61727905273438 29.79373168945312 69.61542510986328 C 29.79292678833008 69.61530303955078 29.79221343994141 69.61519622802734 29.79140853881836 69.61507415771484 C 29.7868766784668 69.61440277099609 29.78359985351562 69.61391448974609 29.77906799316406 69.61323547363281 C 29.77846527099609 69.61314392089844 29.77749252319336 69.61299896240234 29.77688598632812 69.61290740966797 C 29.76782608032227 69.61154937744141 29.76163482666016 69.61061859130859 29.7525749206543 69.60926055908203 C 29.75197219848633 69.60916900634766 29.75168991088867 69.609130859375 29.75108337402344 69.60903930664062 C 29.74655532836914 69.60835266113281 29.74362564086914 69.60791778564453 29.73909759521484 69.60723114013672 C 29.73809051513672 69.60707855224609 29.73678970336914 69.60688018798828 29.73578643798828 69.60673522949219 C 29.72446441650391 69.60502624511719 29.71038818359375 69.60289001464844 29.69906997680664 69.60117340087891 C 29.69786071777344 69.60099029541016 29.696533203125 69.60078430175781 29.69532775878906 69.60060119628906 C 29.68287658691406 69.59870910644531 29.67096710205078 69.59689331054688 29.65852355957031 69.59498596191406 C 29.65751647949219 69.59483337402344 29.65645980834961 69.59467315673828 29.65545654296875 69.59452056884766 C 29.65092849731445 69.59382629394531 29.64824295043945 69.59341430664062 29.64371871948242 69.59272003173828 C 29.6427116394043 69.59256744384766 29.64156341552734 69.59238433837891 29.64055633544922 69.59223175048828 C 29.62811279296875 69.59031677246094 29.61579895019531 69.58842468261719 29.60335922241211 69.58649444580078 C 29.60235595703125 69.58634185791016 29.60134506225586 69.586181640625 29.60033798217773 69.58602905273438 C 29.5879020690918 69.5841064453125 29.57661056518555 69.58235168457031 29.56417846679688 69.58040618896484 C 29.56256866455078 69.58016204833984 29.56101989746094 69.57991790771484 29.55941009521484 69.57966613769531 C 29.5560188293457 69.57913970947266 29.5514030456543 69.57841491699219 29.54801177978516 69.57788848876953 C 29.54740905761719 69.57778930664062 29.54686737060547 69.57770538330078 29.5462646484375 69.57761383056641 C 29.53835296630859 69.57637786865234 29.53064727783203 69.57516479492188 29.52273941040039 69.57392120361328 C 29.52173233032227 69.57376098632812 29.52099227905273 69.57364654541016 29.51998901367188 69.57349395751953 C 29.51546859741211 69.57277679443359 29.51301956176758 69.57239532470703 29.50849914550781 69.57167816162109 C 29.50709533691406 69.57145690917969 29.50559234619141 69.57122039794922 29.50418853759766 69.57099914550781 C 29.49288940429688 69.56922149658203 29.47960662841797 69.56711578369141 29.46831512451172 69.56532287597656 C 29.4669075012207 69.56510162353516 29.4655647277832 69.56488800048828 29.46416091918945 69.56466674804688 C 29.46077346801758 69.56412506103516 29.45656967163086 69.56346130371094 29.45318222045898 69.56291961669922 C 29.45197677612305 69.56272888183594 29.45068359375 69.56252288818359 29.44947814941406 69.56233215332031 C 29.44270324707031 69.56124877929688 29.43571472167969 69.56013488769531 29.4289436340332 69.55905151367188 C 29.42733764648438 69.55879211425781 29.42559051513672 69.55851745605469 29.42398452758789 69.55825805664062 C 29.42059707641602 69.55771636962891 29.41634368896484 69.55702972412109 29.41296005249023 69.55648803710938 C 29.41195678710938 69.55632781982422 29.41059875488281 69.55611419677734 29.40959548950195 69.55595397949219 C 29.40282440185547 69.55486297607422 29.39364624023438 69.55339050292969 29.38687515258789 69.55229187011719 C 29.38607406616211 69.55216979980469 29.3854866027832 69.55207061767578 29.38468551635742 69.55194091796875 C 29.38129806518555 69.55139923095703 29.37663650512695 69.55064392089844 29.37325286865234 69.55009460449219 C 29.37184524536133 69.54986572265625 29.3702507019043 69.54961395263672 29.36884307861328 69.54938507080078 C 29.35756301879883 69.54756164550781 29.34421157836914 69.54539489746094 29.33293151855469 69.54355621337891 C 29.33192825317383 69.54339599609375 29.33038711547852 69.54314422607422 29.32938385009766 69.54297637939453 C 29.31697463989258 69.54095458984375 29.30555725097656 69.53909301757812 29.29315185546875 69.53705596923828 C 29.29175186157227 69.53682708740234 29.2904167175293 69.53660583496094 29.28901290893555 69.536376953125 C 29.28450393676758 69.53563690185547 29.2823371887207 69.5352783203125 29.27782821655273 69.53453826904297 C 29.27642440795898 69.53430938720703 29.27536773681641 69.53413391113281 29.27396392822266 69.53390502929688 C 29.2672004699707 69.53279113769531 29.25875091552734 69.53139495849609 29.25199127197266 69.53028106689453 C 29.25119018554688 69.5301513671875 29.25019836425781 69.52998352050781 29.24939346313477 69.52985382080078 C 29.24601364135742 69.529296875 29.24211883544922 69.52864837646484 29.23873901367188 69.52809143066406 C 29.23673629760742 69.52775573730469 29.23468017578125 69.52742004394531 29.2326774597168 69.52708435058594 C 29.22140884399414 69.52521514892578 29.20959091186523 69.52324676513672 29.19832611083984 69.52136993408203 C 29.19672393798828 69.52110290527344 29.19541549682617 69.52088928222656 29.19381332397461 69.52061462402344 C 29.19043350219727 69.52005767822266 29.18617630004883 69.51934051513672 29.18279647827148 69.51877593994141 C 29.18159484863281 69.51857757568359 29.18039321899414 69.51837158203125 29.17919158935547 69.51817321777344 C 29.17243576049805 69.51704406738281 29.16529083251953 69.51584625244141 29.15853500366211 69.51470947265625 C 29.15693283081055 69.51444244384766 29.15539169311523 69.51418304443359 29.15378952026367 69.513916015625 C 29.14928817749023 69.51315307617188 29.14774703979492 69.51289367675781 29.14324188232422 69.51213836669922 C 29.14144134521484 69.51183319091797 29.13986968994141 69.51156616210938 29.13806915283203 69.51126098632812 C 29.13131332397461 69.51012420654297 29.12482070922852 69.50902557373047 29.11806488037109 69.50788879394531 C 29.11686325073242 69.50768280029297 29.11540603637695 69.50743865966797 29.11420822143555 69.50723266601562 C 29.1108283996582 69.50666046142578 29.10726165771484 69.50605773925781 29.10388565063477 69.50548553466797 C 29.10208511352539 69.50518035888672 29.09989929199219 69.50480651855469 29.09809875488281 69.50450134277344 C 29.08684539794922 69.50258636474609 29.07499313354492 69.50057220458984 29.06374359130859 69.49864959716797 C 29.0621452331543 69.49837493896484 29.06048965454102 69.49809265136719 29.05889129638672 69.49781799316406 C 29.05551528930664 69.49724578857422 29.05141448974609 69.49654388427734 29.04803848266602 69.49596405029297 C 29.04663848876953 69.49571990966797 29.04486083984375 69.49541473388672 29.04346084594727 69.49517822265625 C 29.03671264648438 69.4940185546875 29.03075408935547 69.49299621582031 29.02400970458984 69.49183654785156 C 29.02240753173828 69.49156188964844 29.02059173583984 69.49124908447266 29.01899337768555 69.49097442626953 C 29.01449584960938 69.49019622802734 29.01257705688477 69.4898681640625 29.00807952880859 69.48908996582031 C 29.0064811706543 69.48881530761719 29.00531005859375 69.48861694335938 29.00371170043945 69.48834228515625 C 28.99246978759766 69.48639678955078 28.98037338256836 69.48430633544922 28.96913146972656 69.48235321044922 C 28.96713256835938 69.48200225830078 28.96509552001953 69.48165130615234 28.96310043334961 69.48130035400391 C 28.9597282409668 69.480712890625 28.95640563964844 69.48014068603516 28.95303726196289 69.47955322265625 C 28.95163726806641 69.47930908203125 28.95053482055664 69.47911834716797 28.94913482666016 69.47887420654297 C 28.94239044189453 69.47769927978516 28.93646240234375 69.47666168212891 28.92971801757812 69.47547912597656 C 28.9277229309082 69.47513580322266 28.92546463012695 69.47473907470703 28.92346572875977 69.47438812255859 C 28.92121887207031 69.4739990234375 28.91630935668945 69.47313690185547 28.9140625 69.47274017333984 C 28.91166687011719 69.47232055664062 28.90960693359375 69.47196197509766 28.90721130371094 69.47154235839844 C 28.90047073364258 69.47035980224609 28.89652633666992 69.46966552734375 28.88978576660156 69.46847534179688 C 28.88798904418945 69.46816253662109 28.8859977722168 69.46781158447266 28.88420104980469 69.46749114990234 C 28.88083267211914 69.46689605712891 28.87725830078125 69.46627044677734 28.8738899230957 69.46567535400391 C 28.87209320068359 69.46535491943359 28.87030792236328 69.46504211425781 28.86851119995117 69.4647216796875 C 28.86289978027344 69.46372985839844 28.85773086547852 69.46281433105469 28.85211944580078 69.46182250976562 C 28.84972381591797 69.46139526367188 28.84703826904297 69.46092224121094 28.84464263916016 69.46049499511719 C 28.84127426147461 69.45989990234375 28.83871078491211 69.45944213867188 28.83534240722656 69.45884704589844 C 28.83294677734375 69.45841979980469 28.83047103881836 69.45797729492188 28.82807540893555 69.45755767822266 C 28.82471084594727 69.45695495605469 28.82242584228516 69.45655059814453 28.81905746459961 69.45594787597656 C 28.81546783447266 69.45530700683594 28.81197738647461 69.45468902587891 28.80838775634766 69.45404815673828 C 28.80501937866211 69.45344543457031 28.80003356933594 69.45255279541016 28.79666519165039 69.45195007324219 C 28.79407119750977 69.45148468017578 28.79155349731445 69.45103454589844 28.78896331787109 69.45056915283203 C 28.78671646118164 69.45017242431641 28.78192520141602 69.44931030273438 28.77967834472656 69.44890594482422 C 28.77728652954102 69.44847869873047 28.77457809448242 69.44799041748047 28.77218627929688 69.44756317138672 C 28.7677001953125 69.44675445556641 28.76174545288086 69.44568634033203 28.75725936889648 69.44487762451172 C 28.75466537475586 69.44441223144531 28.75202178955078 69.44393920898438 28.74942779541016 69.44346618652344 C 28.74606323242188 69.44286346435547 28.74350738525391 69.44239807128906 28.74014282226562 69.44179534912109 C 28.73794937133789 69.44139862060547 28.73566436767578 69.44098663330078 28.73347091674805 69.44058990478516 C 28.72225570678711 69.43856048583984 28.71194076538086 69.43669128417969 28.70072937011719 69.43465423583984 C 28.69853973388672 69.43425750732422 28.69596481323242 69.43378448486328 28.69377136230469 69.43338775634766 C 28.69041061401367 69.43277740478516 28.68788909912109 69.43231964111328 28.68452453613281 69.43170166015625 C 28.68233489990234 69.43130493164062 28.6797981262207 69.43083953857422 28.67760467529297 69.43044281005859 C 28.67312240600586 69.42962646484375 28.66631698608398 69.42838287353516 28.66183471679688 69.42755889892578 C 28.65944290161133 69.4271240234375 28.65692138671875 69.42666625976562 28.65453338623047 69.42622375488281 C 28.65229034423828 69.42581176757812 28.64773559570312 69.42498016357422 28.64549255371094 69.42456817626953 C 28.64290237426758 69.42409515380859 28.64056396484375 69.42366027832031 28.63797378540039 69.42318725585938 C 28.63349151611328 69.42236328125 28.62919616699219 69.42157745361328 28.62471389770508 69.42075347900391 C 28.62152862548828 69.420166015625 28.61814498901367 69.41954040527344 28.61495971679688 69.41895294189453 C 28.61159896850586 69.4183349609375 28.61022567749023 69.41808319091797 28.60686492919922 69.41745758056641 C 28.60407638549805 69.41694641113281 28.60089492797852 69.41635894775391 28.59810638427734 69.41584014892578 C 28.59474945068359 69.41522216796875 28.59360122680664 69.41500854492188 28.59024047851562 69.41439056396484 C 28.58626174926758 69.41365051269531 28.58232498168945 69.41292572021484 28.57834625244141 69.41218566894531 C 28.57386779785156 69.41135406494141 28.57168579101562 69.41094970703125 28.56720733642578 69.41011810302734 C 28.56462097167969 69.40963745117188 28.56223678588867 69.40919494628906 28.55964660644531 69.40871429443359 C 28.55741119384766 69.40829467773438 28.55284118652344 69.40744781494141 28.55060195922852 69.40702819824219 C 28.54781723022461 69.40650939941406 28.54465484619141 69.40592193603516 28.54186630249023 69.40540313720703 C 28.53739166259766 69.40456390380859 28.53401184082031 69.4039306640625 28.52953338623047 69.40309906005859 C 28.52635192871094 69.40250396728516 28.52339172363281 69.40194702148438 28.52021026611328 69.40135192871094 C 28.51797103881836 69.40093231201172 28.51415634155273 69.40022277832031 28.51191711425781 69.39980316162109 C 28.50893402099609 69.39923858642578 28.50560760498047 69.39862060546875 28.50262451171875 69.39805603027344 C 28.50038528442383 69.39763641357422 28.49775314331055 69.39714050292969 28.49551773071289 69.39672088623047 C 28.49054336547852 69.39579010009766 28.48580551147461 69.3948974609375 28.4808349609375 69.39395904541016 C 28.47747802734375 69.39332580566406 28.47632598876953 69.39311218261719 28.47297286987305 69.39247894287109 C 28.46998977661133 69.39191436767578 28.46689605712891 69.39132690429688 28.46391296386719 69.39076995849609 C 28.46055603027344 69.39013671875 28.45984268188477 69.38999938964844 28.45648574829102 69.38936614990234 C 28.45171356201172 69.38845825195312 28.44729232788086 69.38762664794922 28.44252014160156 69.38671875 C 28.44028472900391 69.38629913330078 28.43717193603516 69.38570404052734 28.4349365234375 69.38528442382812 C 28.43155670166016 69.38463592529297 28.42813873291016 69.38398742675781 28.42475891113281 69.38334655761719 C 28.42252349853516 69.38291931152344 28.41965866088867 69.38237762451172 28.41742324829102 69.38195037841797 C 28.41404342651367 69.38130950927734 28.41089248657227 69.38070678710938 28.40751266479492 69.38006591796875 C 28.40415954589844 69.37942504882812 28.40029144287109 69.37868499755859 28.39693832397461 69.3780517578125 C 28.39316177368164 69.37732696533203 28.38955688476562 69.37664031982422 28.38578033447266 69.37591552734375 C 28.383544921875 69.37548828125 28.38121032714844 69.37503814697266 28.37897491455078 69.37461090087891 C 28.37519836425781 69.37389373779297 28.37178802490234 69.37323760986328 28.36801147460938 69.37251281738281 C 28.36577987670898 69.37208557128906 28.36417388916016 69.37178039550781 28.3619384765625 69.37134552001953 C 28.35677337646484 69.37035369873047 28.35170745849609 69.369384765625 28.34654235839844 69.36838531494141 C 28.34431076049805 69.36795806884766 28.34231185913086 69.36757659912109 28.34008026123047 69.36714172363281 C 28.33670425415039 69.36649322509766 28.33343124389648 69.36585998535156 28.33005523681641 69.36521148681641 C 28.32782363891602 69.36477661132812 28.32500457763672 69.36423492431641 28.32276916503906 69.36380767822266 C 28.31840133666992 69.36296081542969 28.31374359130859 69.362060546875 28.30937576293945 69.36121368408203 C 28.30602645874023 69.36056518554688 28.30551910400391 69.36046600341797 28.30216979980469 69.35981750488281 C 28.29839706420898 69.35908508300781 28.2946891784668 69.35836791992188 28.29091644287109 69.35763549804688 C 28.2886848449707 69.35720062255859 28.28610610961914 69.35670471191406 28.28387451171875 69.35626983642578 C 28.28010559082031 69.35553741455078 28.27640533447266 69.35481262207031 28.27263641357422 69.35408020019531 C 28.27040481567383 69.35364532470703 28.26961517333984 69.35349273681641 28.26738357543945 69.35305786132812 C 28.26222229003906 69.35205078125 28.25722122192383 69.35108184814453 28.2520637512207 69.35006713867188 C 28.24983215332031 69.34963226318359 28.24737930297852 69.34915161132812 28.24514770507812 69.34871673583984 C 28.2415771484375 69.3480224609375 28.23814010620117 69.34735107421875 28.23456954956055 69.34664916992188 C 28.23233795166016 69.34621429443359 28.23059844970703 69.34587097167969 28.22836685180664 69.34543609619141 C 28.22320938110352 69.34442138671875 28.21799468994141 69.34339904785156 28.21283721923828 69.34238433837891 C 28.21060562133789 69.34194946289062 28.20934677124023 69.34169769287109 28.20711517333984 69.34126281738281 C 28.20334625244141 69.34052276611328 28.19943237304688 69.33975219726562 28.19566345214844 69.33900451660156 C 28.19343566894531 69.33856964111328 28.19210433959961 69.33830261230469 28.18987274169922 69.33786773681641 C 28.18511581420898 69.33692932128906 28.18025970458984 69.33596801757812 28.17550277709961 69.33502960205078 C 28.17327117919922 69.33458709716797 28.17251205444336 69.33443450927734 28.17028045654297 69.33399200439453 C 28.16572189331055 69.33309173583984 28.16134643554688 69.33222961425781 28.15678787231445 69.33132171630859 C 28.15455627441406 69.33087921142578 28.15328598022461 69.33062744140625 28.15105438232422 69.33018493652344 C 28.14689254760742 69.32936096191406 28.1429328918457 69.32857513427734 28.13877105712891 69.32774353027344 C 28.13653945922852 69.32730102539062 28.13625335693359 69.32724761962891 28.1340217590332 69.32680511474609 C 28.1286735534668 69.32573699951172 28.12332916259766 69.32467651367188 28.11798095703125 69.3236083984375 C 28.11686706542969 69.32338714599609 28.11381912231445 69.32277679443359 28.11270141601562 69.32255554199219 C 28.10893630981445 69.32180786132812 28.10491180419922 69.32099914550781 28.10114669799805 69.32025146484375 C 28.09891891479492 69.31980133056641 28.09698104858398 69.31941223144531 28.09475326538086 69.3189697265625 C 28.089599609375 69.31793975830078 28.08427810668945 69.31687164306641 28.07912826538086 69.31584167480469 C 28.0780143737793 69.31561279296875 28.07613754272461 69.31523895263672 28.07501983642578 69.31501770019531 C 28.07066345214844 69.31414031982422 28.0662841796875 69.31326293945312 28.06192398071289 69.31238555908203 C 28.05969619750977 69.31193542480469 28.05896377563477 69.31179046630859 28.05673599243164 69.31134033203125 C 28.05138778686523 69.31026458740234 28.04623413085938 69.30922698974609 28.04088592529297 69.30814361572266 C 28.04088592529297 69.30814361572266 28.03992080688477 69.30795288085938 28.03992080688477 69.30795288085938 C 28.03437423706055 69.30683135986328 28.02891159057617 69.30572509765625 28.02336883544922 69.30461120605469 C 28.02114105224609 69.30415344238281 28.02021026611328 69.30397033691406 28.01798248291016 69.30352020263672 C 28.013427734375 69.30259704589844 28.00920104980469 69.30173492431641 28.00464630126953 69.30081176757812 C 28.00353622436523 69.30059051513672 28.00228881835938 69.30033874511719 28.00117492675781 69.30010986328125 C 27.99563598632812 69.29898834228516 27.98983001708984 69.29780578613281 27.98428726196289 69.29667663574219 C 27.98317337036133 69.29645538330078 27.98172760009766 69.29615783691406 27.98061752319336 69.29592895507812 C 27.97586822509766 69.29496765136719 27.97101974487305 69.29397583007812 27.96627044677734 69.29300689697266 C 27.96516036987305 69.29277801513672 27.96383666992188 69.29251098632812 27.96272277832031 69.29228210449219 C 27.956787109375 69.29106903076172 27.95101928710938 69.28989410400391 27.94508361816406 69.28868103027344 C 27.94508361816406 69.28868103027344 27.9450798034668 69.28868103027344 27.9450798034668 69.28868103027344 C 27.93914413452148 69.28746032714844 27.93336868286133 69.28627777099609 27.92743682861328 69.28506469726562 C 27.92743682861328 69.28506469726562 27.92485046386719 69.28453063964844 27.92485046386719 69.28453063964844 C 27.91278457641602 69.28205108642578 27.9009895324707 69.27962493896484 27.8889274597168 69.27713775634766 C 27.8878173828125 69.27690887451172 27.88796615600586 69.27693939208984 27.88685607910156 69.27671051025391 C 27.88151550292969 69.27560424804688 27.87601089477539 69.27446746826172 27.87067413330078 69.27336120605469 C 27.87067413330078 69.27336120605469 27.86848831176758 69.27291107177734 27.86848831176758 69.27291107177734 C 27.86255645751953 69.27168273925781 27.85645294189453 69.27041625976562 27.85052490234375 69.26918792724609 C 27.85052490234375 69.26918792724609 27.84936141967773 69.26895141601562 27.84936141967773 69.26895141601562 C 27.84383010864258 69.26779937744141 27.83850860595703 69.26669311523438 27.83297729492188 69.26554107666016 C 27.83186340332031 69.26531219482422 27.83101272583008 69.26513671875 27.82990264892578 69.26490020751953 C 27.81824493408203 69.26247406005859 27.80685806274414 69.26010131835938 27.79520416259766 69.25765991210938 C 27.79409408569336 69.25743103027344 27.79234313964844 69.25705718994141 27.79123306274414 69.25682830810547 C 27.78570175170898 69.25566864013672 27.78041458129883 69.25456237792969 27.77488708496094 69.25340270996094 C 27.77377319335938 69.25316619873047 27.7752799987793 69.25348663330078 27.77416610717773 69.25325012207031 C 27.76804733276367 69.25196838378906 27.76234817504883 69.25077056884766 27.7562255859375 69.24948120117188 C 27.7551155090332 69.24924468994141 27.75507736206055 69.24923706054688 27.75396728515625 69.24900817871094 C 27.74824142456055 69.247802734375 27.74253845214844 69.24659729003906 27.73681259155273 69.24539184570312 C 27.73681259155273 69.24539184570312 27.73624038696289 69.24526977539062 27.73624038696289 69.24526977539062 C 27.72992324829102 69.24393463134766 27.72397613525391 69.24267578125 27.71765899658203 69.24134063720703 C 27.71765899658203 69.24134063720703 27.71694183349609 69.24118804931641 27.71694183349609 69.24118804931641 C 27.71121978759766 69.23997497558594 27.70553207397461 69.23876953125 27.69981002807617 69.23755645751953 C 27.69869995117188 69.23731994628906 27.69861602783203 69.2373046875 27.69750595092773 69.23706817626953 C 27.68566513061523 69.23455810546875 27.67366790771484 69.23200225830078 27.66183471679688 69.22947692871094 C 27.66072463989258 69.22924041748047 27.66030120849609 69.22914886474609 27.6591911315918 69.22891235351562 C 27.65347290039062 69.22769165039062 27.64809036254883 69.22654724121094 27.64237213134766 69.22531890869141 C 27.64237213134766 69.22531890869141 27.64151000976562 69.22513580322266 27.64151000976562 69.22513580322266 C 27.63539505004883 69.22383117675781 27.6292610168457 69.22251129150391 27.62314987182617 69.22120666503906 C 27.62314987182617 69.22120666503906 27.62207794189453 69.22097015380859 27.62207794189453 69.22097015380859 C 27.61635971069336 69.21974945068359 27.61067962646484 69.21852874755859 27.60496139526367 69.21729278564453 C 27.60385513305664 69.21705627441406 27.60437774658203 69.21717071533203 27.603271484375 69.21693420410156 C 27.59124755859375 69.21434783935547 27.57920074462891 69.21174621582031 27.56718444824219 69.20914459228516 C 27.56718444824219 69.20914459228516 27.56499099731445 69.20867156982422 27.56499099731445 69.20867156982422 C 27.55297470092773 69.20607757568359 27.54068756103516 69.20340728759766 27.5286750793457 69.20079803466797 C 27.52756881713867 69.20055389404297 27.52870941162109 69.2008056640625 27.52760314941406 69.2005615234375 C 27.5153923034668 69.19790649414062 27.50297927856445 69.19520568847656 27.49077224731445 69.19253540039062 C 27.49077224731445 69.19253540039062 27.48958969116211 69.19227600097656 27.48958969116211 69.19227600097656 C 27.48368453979492 69.19098663330078 27.47820663452148 69.18978881835938 27.4723014831543 69.18849182128906 C 27.47119522094727 69.18824768066406 27.47214889526367 69.18846130371094 27.47104263305664 69.18821716308594 C 27.45883941650391 69.18553924560547 27.44625091552734 69.18276977539062 27.43405151367188 69.18008422851562 C 27.43405151367188 69.18008422851562 27.43339920043945 69.17993927001953 27.43339920043945 69.17993927001953 C 27.42100143432617 69.17720794677734 27.40839767456055 69.17442321777344 27.3960075378418 69.17167663574219 C 27.3960075378418 69.17167663574219 27.39588165283203 69.17165374755859 27.39588165283203 69.17165374755859 C 27.37700271606445 69.16746520996094 27.35835266113281 69.16332244873047 27.33948516845703 69.15911102294922 C 27.33948516845703 69.15911102294922 27.33922576904297 69.15904998779297 27.33922576904297 69.15904998779297 C 26.58447265625 68.99052429199219 25.83901977539062 68.79764556884766 25.1035270690918 68.58123779296875 C 22.71931076049805 67.87973022460938 21.35520172119141 65.37823486328125 22.05672836303711 62.9940185546875 C 22.63351058959961 61.0337028503418 24.42702484130859 59.76305389404297 26.37179565429688 59.76305389404297 C 26.79233932495117 59.76305389404297 27.22004318237305 59.82249450683594 27.64394378662109 59.94721984863281 C 30.01814651489258 60.64579772949219 32.49309158325195 61 35 61 C 49.33645629882812 61 61 49.33645629882812 61 35 C 61 20.66354370117188 49.33645629882812 9 35 9 C 32.51470947265625 9 30.5 6.98529052734375 30.5 4.5 C 30.5 2.01470947265625 32.51470947265625 0 35 0 C 35 0 35 0 35 0 Z" stroke="none" fill="#f3af44"/>
    </g>
  </g>
</svg>
