<svg xmlns="http://www.w3.org/2000/svg" width="20.5" height="18.092" viewBox="0 0 20.5 18.092">
  <g id="logout" transform="translate(0.75 34.561) rotate(-90)">
    <g id="Group_74" data-name="Group 74" transform="translate(17.219)">
      <path id="Path_266" data-name="Path 266" d="M25.178,17.911H20.529a2.371,2.371,0,0,1-2.289-2.44V3.528a2.371,2.371,0,0,1,2.289-2.44h4.725a.526.526,0,0,0,.511-.544A.526.526,0,0,0,25.254,0H20.529a3.428,3.428,0,0,0-3.31,3.528V15.472A3.428,3.428,0,0,0,20.529,19h4.649a.545.545,0,0,0,0-1.089Z" transform="translate(-17.219)" fill="#fff" stroke="#fff" stroke-width="1.5"/>
      <path id="Path_267" data-name="Path 267" d="M132.983,139.945l-3.246-3.46a.487.487,0,0,0-.723,0,.568.568,0,0,0,0,.77l2.376,2.532H121.03a.545.545,0,0,0,0,1.089h10.361l-2.376,2.532a.568.568,0,0,0,0,.77.5.5,0,0,0,.359.161.484.484,0,0,0,.359-.161l3.246-3.46A.569.569,0,0,0,132.983,139.945Z" transform="translate(-116.611 -130.828)" fill="#fff" stroke="#fff" stroke-width="1.5"/>
    </g>
  </g>
</svg>
