<svg xmlns="http://www.w3.org/2000/svg" xmlns:xlink="http://www.w3.org/1999/xlink" width="33.466" height="34.315" viewBox="0 0 33.466 34.315">
  <defs>
    <linearGradient id="linear-gradient" x1="0.383" y1="0.5" x2="0.52" y2="0.5" gradientUnits="objectBoundingBox">
      <stop offset="0" stop-color="#cc8241"/>
      <stop offset="1" stop-color="#dea861"/>
    </linearGradient>
    <linearGradient id="linear-gradient-2" x1="0.222" y1="0.231" x2="0.736" y2="0.728" gradientUnits="objectBoundingBox">
      <stop offset="0" stop-color="#dea861"/>
      <stop offset="1" stop-color="#ebcba0"/>
    </linearGradient>
    <linearGradient id="linear-gradient-3" x1="0.697" y1="0.098" x2="0.755" y2="0.003" gradientUnits="objectBoundingBox">
      <stop offset="0" stop-color="#236568"/>
      <stop offset="1" stop-color="#2f878a"/>
    </linearGradient>
    <linearGradient id="linear-gradient-4" x1="0.543" y1="0.494" x2="0.63" y2="0.338" xlink:href="#linear-gradient-3"/>
  </defs>
  <g id="_2936949" data-name="2936949" transform="translate(-6.328)">
    <g id="Group_30" data-name="Group 30" transform="translate(6.328 0)">
      <path id="Path_128" data-name="Path 128" d="M34.428,133.9V116.4L6.328,117.6v17.507a1.18,1.18,0,0,0,.6,1.032l11.132,6.427a2.559,2.559,0,0,0,2.559,0l13.219-7.632A1.18,1.18,0,0,0,34.428,133.9Z" transform="translate(-6.328 -108.596)" fill="url(#linear-gradient)"/>
      <path id="Path_129" data-name="Path 129" d="M6.923,7.975,20.142.343a2.559,2.559,0,0,1,2.559,0L33.832,6.77a1.191,1.191,0,0,1,0,2.063L20.613,16.464a2.559,2.559,0,0,1-2.559,0L6.923,10.037a1.191,1.191,0,0,1,0-2.063Z" transform="translate(-6.328 0)" fill="url(#linear-gradient-2)"/>
      <path id="Path_130" data-name="Path 130" d="M79.165,51.8l14.2,8.2,3.766-2.174-14.2-8.2Z" transform="translate(-74.283 -46.296)" fill="#dea861"/>
      <g id="Group_29" data-name="Group 29" transform="translate(6.395 4.199)">
        <path id="Path_131" data-name="Path 131" d="M102.481,62.657l14.2,8.2-.738.426-14.2-8.2Z" transform="translate(-101.743 -62.657)" fill="#cc8241"/>
        <path id="Path_132" data-name="Path 132" d="M291,174.1v3.11l3.766-2.174v-3.11Z" transform="translate(-278.317 -164.602)" fill="#cc8241"/>
      </g>
    </g>
    <g id="Group_32" data-name="Group 32" transform="translate(24.759 11.455)">
      <path id="Path_133" data-name="Path 133" d="M296.021,172.754a.888.888,0,0,0-.2-.112l-2.708-1.538a.888.888,0,0,0-1.322.3l-5.05,9.724-.054-.041a1.519,1.519,0,0,0-.518-.253v0l-2.385-1.394a1.524,1.524,0,0,0-.415-.222l-.005,0h0a1.526,1.526,0,0,0-1.422,2.66l4.6,3.474,2.9,1.65,6.828-13.12A.887.887,0,0,0,296.021,172.754Z" transform="translate(-281.338 -170.924)" fill="url(#linear-gradient-3)"/>
      <path id="Path_134" data-name="Path 134" d="M286.693,295.258a1.52,1.52,0,0,0-.518-.253v0l-2.385-1.394a1.524,1.524,0,0,0-.415-.222l-.005,0h0a1.527,1.527,0,0,0-1.422,2.66l4.6,3.474,2.9,1.65Z" transform="translate(-281.34 -285.099)" fill="url(#linear-gradient-4)"/>
      <g id="Group_31" data-name="Group 31" transform="translate(2.905 1.65)">
        <path id="Path_135" data-name="Path 135" d="M329.881,209.963l-4.6-3.474a1.527,1.527,0,1,1,1.842-2.436l2.753,2.082,5.255-10.115a.888.888,0,0,1,1.573.823Z" transform="translate(-324.679 -195.543)" fill="#06daae"/>
      </g>
    </g>
  </g>
</svg>
