<svg id="link" xmlns="http://www.w3.org/2000/svg" width="42.685" height="35.012" viewBox="0 0 42.685 35.012">
  <path id="Path_466" data-name="Path 466" d="M163.693,3.129h0l-3.3-1.9a8.391,8.391,0,0,0-8.59-.091l-6.373,3.68a17.663,17.663,0,0,0-8.807,15.255,8.446,8.446,0,0,0,4.321,7.363h0l3.264,1.882h0a8.387,8.387,0,0,0,8.531.057l6.373-3.68a17.663,17.663,0,0,0,8.807-15.255A8.444,8.444,0,0,0,163.693,3.129ZM146.458,21.662a11.291,11.291,0,0,1,5.621-9.341l6.015-3.472a11.29,11.29,0,0,1-5.621,9.341Zm0,0" transform="translate(-125.238 0)" fill="#382774"/>
  <path id="Path_467" data-name="Path 467" d="M186.617,52.486a8.45,8.45,0,0,1-8.441-8.441,17.664,17.664,0,0,1,8.807-15.255l6.373-3.68a8.422,8.422,0,0,1,12.65,7.3A17.663,17.663,0,0,1,197.2,47.668l-6.373,3.68A8.431,8.431,0,0,1,186.617,52.486ZM197.565,30.33a2.04,2.04,0,0,0-1.03.286l-6.373,3.68a11.289,11.289,0,0,0-5.628,9.749,2.088,2.088,0,0,0,2.083,2.083,2.043,2.043,0,0,0,1.03-.286l6.373-3.68a11.288,11.288,0,0,0,5.629-9.749A2.088,2.088,0,0,0,197.565,30.33Zm0,0" transform="translate(-163.322 -21.974)" fill="#4e37a0"/>
  <path id="Path_468" data-name="Path 468" d="M29.845,89.313l-3,1.735a11.177,11.177,0,0,0-1.222.82h0a11.221,11.221,0,0,0-3.857,5.475,11.325,11.325,0,0,1,1.944.606l-5.052,2.917a11.271,11.271,0,0,1-5.629,1.508c-.137,0-.852-.034-.852-.034a11.29,11.29,0,0,1-3.453-.827l2.75-1.588A8.409,8.409,0,0,1,11.39,98.8a17.733,17.733,0,0,1,5.642-12.912,17.64,17.64,0,0,0-6.443,2.2l-6.373,3.68A8.342,8.342,0,0,0,0,98.859l0,0v5.219a8.348,8.348,0,0,0,4.216,7.3,17.614,17.614,0,0,0,17.615,0L28.2,107.7a8.347,8.347,0,0,0,4.217-7.3V95.389A8.338,8.338,0,0,0,29.845,89.313Zm0,0" transform="translate(0 -78.726)" fill="#c3882d"/>
  <path id="Path_469" data-name="Path 469" d="M29.845,89.31l-3,1.735A11.2,11.2,0,0,0,24.2,93.159c.279.132.555.274.823.429a2.075,2.075,0,0,1,0,3.595l-6.373,3.68a11.271,11.271,0,0,1-5.629,1.508c-.137,0-.852-.034-.852-.034A11.278,11.278,0,0,1,7.4,100.862a2.075,2.075,0,0,1,0-3.595l4.488-2.591a17.71,17.71,0,0,1,5.15-8.793,17.635,17.635,0,0,0-6.443,2.2l-6.373,3.68a8.433,8.433,0,0,0,0,14.606,17.614,17.614,0,0,0,17.615,0l6.373-3.68A8.441,8.441,0,0,0,29.845,89.31Zm0,0" transform="translate(0 -78.723)" fill="#f3af44"/>
</svg>
