<svg xmlns="http://www.w3.org/2000/svg" width="52" height="18" viewBox="0 0 52 18">
  <g id="logo" transform="translate(-0.085)">
    <path id="Path_149" data-name="Path 149" d="M1.094,3.253c1.133.605.927,1.368,1.082,2.368.026,2.763-.026,5.5-.1,8.263a3.792,3.792,0,0,1-.438,1.895c-.464.816-1.494.5-1.545,1.395-.1,1.447,1.932,1.526,4.3,1.526a22.008,22.008,0,0,0,4.275-.342,2.722,2.722,0,0,0,.927-.316c.515-.342.361-1.421-.258-1.526a2.648,2.648,0,0,1-1.21-.395c-.361-.316-.489-.842-.541-2.211a9.873,9.873,0,0,1,.052-2.658.891.891,0,0,1,.953-.474,1.943,1.943,0,0,1,1.236.316,1.833,1.833,0,0,1,.747,1.447c.052.474.077.921.464,1.026,1.082.316,1.545-1.316,1.7-2.658a10.474,10.474,0,0,0-.206-3.737c-.309-.921-1.185-1.474-1.777-.579a12.716,12.716,0,0,1-.489,1.395,2.319,2.319,0,0,1-2.318.263c-.335-.105-.489-.553-.489-1.079A12.864,12.864,0,0,1,7.661,5.2c.155-.711.155-1.421,1.056-1.526a13.091,13.091,0,0,1,3.374.211c1.262.263,1.726,1.395,2.678,2.158.489.395,1.6.026,1.622-1.158A5.551,5.551,0,0,0,15.9,2.543a2.761,2.761,0,0,0-.7-1.053.967.967,0,0,0-.979-.263h-.1c-.258.026-.567.079-.953.105A62.418,62.418,0,0,1,2.536,1.306,2.572,2.572,0,0,0,.6,1.674,1.377,1.377,0,0,0,.3,2.043a.772.772,0,0,0,.155.868,2.181,2.181,0,0,0,.644.342Z" transform="translate(0 -0.885)" fill="#ff671d"/>
    <path id="Path_150" data-name="Path 150" d="M71.934,1.2c1.082,0,3.863-.079,4.455.974.592,1-.592,1.289-1.185,1.579-.618.289-.644,1.789-.644,3.211,0,1.474.026,2.921.026,4.395,0,1.026.026,2.026.077,2.974.1,1.316.7,1.842,2.421,1.816a3.6,3.6,0,0,0,1.906-.447,3.246,3.246,0,0,0,1.442-2c.1-.289.18-.526.283-.763.052-.105.232-.395.773-.211a1.016,1.016,0,0,1,.464.289c.85,1.026.515,2.684-.052,3.895a8.531,8.531,0,0,1-.773,1.368c-.592.816-1.21.5-2.035.395a16.5,16.5,0,0,0-2.266-.211c-2.575.026-5.073.053-7.649,0-.283,0-.592-.026-.876-.026-.876-.026-1.107-.421-1.107-.868,0-.421.438-.553.85-.789a2.547,2.547,0,0,0,.438-.289c.67-.447.747-1.368.747-2.526.052-2.711-.129-6.553-.129-7.947A3.024,3.024,0,0,0,68.741,4.2c-.361-.447-1-.395-1.571-.763-.747-.526-.309-1.474,1.185-1.868a13.245,13.245,0,0,1,3.58-.368Z" transform="translate(-49.543 -0.88)" fill="#ff671d"/>
    <path id="Path_151" data-name="Path 151" d="M138.774,0h-.026A9.2,9.2,0,0,0,129.4,9a9.2,9.2,0,0,0,9.349,9h.026A9.2,9.2,0,0,0,148.1,9,9.2,9.2,0,0,0,138.774,0Zm2.472,13.184a3.048,3.048,0,0,1-2.472,1.737c-1.932,0-3.5-2.684-3.5-5.947,0-3.289,1.571-5.947,3.5-5.947s3.5,2.684,3.5,5.947A8.312,8.312,0,0,1,141.247,13.184Z" transform="translate(-96.011)" fill="#ff671d" fill-rule="evenodd"/>
  </g>
</svg>
