<svg xmlns="http://www.w3.org/2000/svg" width="80" height="29.139" viewBox="0 0 80 29.139">
  <g id="jet-SVG" transform="translate(-23.45 -115.2)">
    <path id="Path_449" data-name="Path 449" d="M31.027,133.22h4.292v17.148a20.066,20.066,0,0,1-.565,5.746,5.359,5.359,0,0,1-1.863,2.626,5.043,5.043,0,0,1-3.116.976q-3.711,0-6.324-3.743l3.086-3.32a7.713,7.713,0,0,0,1.742,1.792,2.586,2.586,0,0,0,1.389.456,1.084,1.084,0,0,0,1.023-.668,7.969,7.969,0,0,0,.336-2.934V133.22Z" transform="translate(0 -15.376)" fill="#864399"/>
    <path id="Path_450" data-name="Path 450" d="M147.638,162.694h-13.4a4.458,4.458,0,0,0,1.551,2.819,4.86,4.86,0,0,0,3.215,1.046,5.559,5.559,0,0,0,4.017-1.635l3.513,1.649a8.3,8.3,0,0,1-3.146,2.757,9.842,9.842,0,0,1-4.353.894,8.6,8.6,0,0,1-6.369-2.466,8.39,8.39,0,0,1-2.459-6.179,8.68,8.68,0,0,1,2.452-6.316,8.235,8.235,0,0,1,6.148-2.512,8.541,8.541,0,0,1,6.384,2.512,9.082,9.082,0,0,1,2.459,6.636Zm-4.17-3.284a4.19,4.19,0,0,0-1.63-2.261,4.721,4.721,0,0,0-2.823-.87,4.987,4.987,0,0,0-3.059.977,5.447,5.447,0,0,0-1.53,2.154Z" transform="translate(-91.096 -32.041)" fill="#864399"/>
    <path id="Path_451" data-name="Path 451" d="M260.666,115.2v6.368h3.592V125.3h-3.592v13.547H256.5V125.3H253.24v-3.733H256.5l-.088-4.1Z" transform="translate(-196.074 0)" fill="#864399"/>
    <path id="Path_452" data-name="Path 452" d="M356.612,164.958l1.783.938a9.739,9.739,0,0,1-2.026,2.78,8.061,8.061,0,0,1-2.587,1.61,9.01,9.01,0,0,1-3.251.552,7.858,7.858,0,0,1-6.292-2.637,8.893,8.893,0,0,1-2.268-5.961,8.786,8.786,0,0,1,1.921-5.576,7.854,7.854,0,0,1,6.519-3.113,8.115,8.115,0,0,1,6.716,3.188,8.9,8.9,0,0,1,1.815,5.621H344.146a6.694,6.694,0,0,0,1.83,4.7,5.84,5.84,0,0,0,4.372,1.831,7.043,7.043,0,0,0,2.443-.436,6.428,6.428,0,0,0,2.019-1.159A9.862,9.862,0,0,0,356.612,164.958Zm0-4.428a7.02,7.02,0,0,0-1.232-2.7,5.82,5.82,0,0,0-2.1-1.613,6.671,6.671,0,0,0-2.83-.638,6.025,6.025,0,0,0-4.171,1.557,7.043,7.043,0,0,0-1.922,3.4h12.254Z" transform="translate(-271.785 -32.723)" fill="#fbb018"/>
    <path id="Path_453" data-name="Path 453" d="M466.49,159.36h2.538L473.4,165.4l4.328-6.038h2.543l-5.6,7.8,6.306,8.708H478.4l-5-6.933-4.975,6.933H465.9l6.228-8.693Z" transform="translate(-377.532 -37.681)" fill="#fbb018"/>
  </g>
</svg>
